<?xml version="1.0" encoding="UTF-8" standalone="no"?>
<svg
   xmlns:dc="http://purl.org/dc/elements/1.1/"
   xmlns:cc="http://creativecommons.org/ns#"
   xmlns:rdf="http://www.w3.org/1999/02/22-rdf-syntax-ns#"
   xmlns:svg="http://www.w3.org/2000/svg"
   xmlns="http://www.w3.org/2000/svg"
   xmlns:sodipodi="http://sodipodi.sourceforge.net/DTD/sodipodi-0.dtd"
   xmlns:inkscape="http://www.inkscape.org/namespaces/inkscape"
   viewBox="0 0 966 966"
   version="1.1"
   id="svg51"
   sodipodi:docname="icons_blog post.svg"
   width="100%"
   height="100%"
   inkscape:version="0.92.4 (5da689c313, 2019-01-14)">
  <metadata
     id="metadata55">
    <rdf:RDF>
      <cc:Work
         rdf:about="">
        <dc:format>image/svg+xml</dc:format>
        <dc:type
           rdf:resource="http://purl.org/dc/dcmitype/StillImage" />
      </cc:Work>
    </rdf:RDF>
  </metadata>
  <sodipodi:namedview
     pagecolor="#ffffff"
     bordercolor="#666666"
     borderopacity="1"
     objecttolerance="10"
     gridtolerance="10"
     guidetolerance="10"
     inkscape:pageopacity="0"
     inkscape:pageshadow="2"
     inkscape:window-width="1920"
     inkscape:window-height="1027"
     id="namedview53"
     showgrid="false"
     inkscape:zoom="0.16822917"
     inkscape:cx="483"
     inkscape:cy="483"
     inkscape:window-x="0"
     inkscape:window-y="27"
     inkscape:window-maximized="1"
     inkscape:current-layer="svg51" />
  <defs
     id="defs4">
    <style
       id="style2">.cls-1{fill:#fc808a;}.cls-2{fill:#23121f;}.cls-3{fill:#41263b;}.cls-4{fill:#645460;}.cls-5{fill:#fff;}.cls-6{fill:#f9d016;}.cls-7{fill:#a5a5a5;}</style>
  </defs>
  <title
     id="title6">icons</title>
  <g
     id="blog_post"
     data-name="blog post"
     transform="translate(-477,-57)">
    <circle
       class="cls-1"
       cx="960"
       cy="540"
       r="483"
       id="circle8"
       style="fill:#fc808a" />
    <rect
       class="cls-2"
       x="880.35999"
       y="628.17999"
       width="145.14999"
       height="113.93"
       id="rect10"
       style="fill:#23121f" />
    <rect
       class="cls-3"
       x="714.91998"
       y="319.14999"
       width="474.47"
       height="337.12"
       rx="31.360001"
       id="rect12"
       style="fill:#41263b" />
    <path
       class="cls-3"
       d="m 714.92,592.29 v 33.5 c 0,17.32 13.05,35.17 30.37,35.17 h 411.44 c 17.32,0 31.09,-17.85 31.09,-35.17 v -33.5 z"
       id="path14"
       inkscape:connector-curvature="0"
       style="fill:#41263b" />
    <rect
       class="cls-3"
       x="821.04999"
       y="720.27002"
       width="262.20999"
       height="40.580002"
       rx="19.25"
       id="rect16"
       style="fill:#41263b" />
    <path
       class="cls-4"
       d="M 965.7,628.62 A 14.72,14.72 0 1 1 951,613.91 14.72,14.72 0 0 1 965.7,628.62 Z"
       id="path18"
       inkscape:connector-curvature="0"
       style="fill:#645460" />
    <rect
       class="cls-5"
       x="727.40002"
       y="345.69"
       width="447.92999"
       height="246.60001"
       id="rect20"
       style="fill:#ffffff" />
    <path
       class="cls-6"
       d="m 906.67,506.46 a 16.51,16.51 0 0 1 -16.55,16.47 H 762.68 A 16.51,16.51 0 0 1 746.13,506.46 V 379.63 a 16.51,16.51 0 0 1 16.55,-16.47 h 127.44 a 16.51,16.51 0 0 1 16.55,16.47 z"
       id="path22"
       inkscape:connector-curvature="0"
       style="fill:#f9d016" />
    <path
       class="cls-3"
       d="m 843.86,437.66 q 8.49,2.47 13.2,6.57 a 24.3,24.3 0 0 1 8.48,19.06 32.28,32.28 0 0 1 -4.2,16.29 30.07,30.07 0 0 1 -11.55,11.49 32.69,32.69 0 0 1 -16.33,4.15 h -31.58 q -6.95,0 -10.79,-3.83 -3.84,-3.83 -3.83,-10.73 v -75.24 q 0,-6.8 3.85,-10.67 3.85,-3.87 10.77,-3.88 h 23.87 q 13.89,0 21.72,6.57 a 25.08,25.08 0 0 1 6.4,8.27 22.55,22.55 0 0 1 2.38,10 q 0,8 -2.87,12.95 -2.87,4.95 -9.52,9 z m -32.54,-7.07 h 12.09 a 10.09,10.09 0 0 0 7.29,-2.82 9.62,9.62 0 0 0 2.92,-7.18 7.36,7.36 0 0 0 -3.42,-6.46 13.84,13.84 0 0 0 -7.91,-2.29 h -11 z m 0,43.81 H 828 q 7,0 10.06,-3.59 c 1.66,-1.78 2.49,-4.55 2.49,-8.29 q -0.62,-10.65 -13.2,-10.65 h -16 z"
       id="path24"
       inkscape:connector-curvature="0"
       style="fill:#41263b" />
    <path
       class="cls-5"
       d="m 1188.2,650.72 c 9.28,-2.52 9.41,-7.07 0.29,-10.11 l -49.69,-16.56 c -9.12,-3 -14.1,1.93 -11.06,11.05 l 16.57,49.69 c 3,9.12 7.58,9 10.1,-0.28 l 2.64,-9.71 c 2.51,-9.28 12.17,-18.93 21.45,-21.45 z"
       id="path26"
       inkscape:connector-curvature="0"
       style="fill:#ffffff" />
    <path
       class="cls-5"
       d="m 1194.82,678.11 a 7,7 0 0 1 0,9.89 l -2,2 a 7,7 0 0 1 -9.89,0 l -25.29,-25.29 a 7,7 0 0 1 0,-9.89 l 2,-1.95 a 7,7 0 0 1 9.89,0 z"
       id="path28"
       inkscape:connector-curvature="0"
       style="fill:#ffffff" />
    <path
       class="cls-7"
       d="M 1117.24,378.62 H 965 a 5.95,5.95 0 1 1 0,-11.89 h 152.27 a 5.95,5.95 0 1 1 0,11.89 z"
       id="path30"
       inkscape:connector-curvature="0"
       style="fill:#a5a5a5" />
    <path
       class="cls-7"
       d="m 1077.52,404.79 h -72.83 a 5.95,5.95 0 1 1 0,-11.89 h 72.83 a 5.95,5.95 0 1 1 0,11.89 z"
       id="path32"
       inkscape:connector-curvature="0"
       style="fill:#a5a5a5" />
    <path
       class="cls-7"
       d="m 998.28,455.12 h -61.87 a 5.95,5.95 0 0 1 0,-11.89 h 61.87 a 5.95,5.95 0 0 1 0,11.89 z"
       id="path34"
       inkscape:connector-curvature="0"
       style="fill:#a5a5a5" />
    <path
       class="cls-7"
       d="m 1143.41,455.12 h -114.2 a 5.95,5.95 0 1 1 0,-11.89 h 114.2 a 5.95,5.95 0 1 1 0,11.89 z"
       id="path36"
       inkscape:connector-curvature="0"
       style="fill:#a5a5a5" />
    <path
       class="cls-7"
       d="M 1053,488.43 H 936.41 a 5.95,5.95 0 0 1 0,-11.89 H 1053 a 5.95,5.95 0 1 1 0,11.89 z"
       id="path38"
       inkscape:connector-curvature="0"
       style="fill:#a5a5a5" />
    <path
       class="cls-7"
       d="m 979.24,521.74 h -42.83 a 5.95,5.95 0 0 1 0,-11.89 h 42.83 a 5.95,5.95 0 1 1 0,11.89 z"
       id="path40"
       inkscape:connector-curvature="0"
       style="fill:#a5a5a5" />
    <path
       class="cls-7"
       d="m 1143.41,521.74 h -133.24 a 5.95,5.95 0 1 1 0,-11.89 h 133.24 a 5.95,5.95 0 1 1 0,11.89 z"
       id="path42"
       inkscape:connector-curvature="0"
       style="fill:#a5a5a5" />
    <path
       class="cls-7"
       d="m 1143.41,488.43 h -61.86 a 5.95,5.95 0 1 1 0,-11.89 h 61.86 a 5.95,5.95 0 1 1 0,11.89 z"
       id="path44"
       inkscape:connector-curvature="0"
       style="fill:#a5a5a5" />
    <path
       class="cls-7"
       d="M 876.93,555.05 H 758 a 5.95,5.95 0 1 1 0,-11.89 h 119 a 5.95,5.95 0 1 1 0,11.89 z"
       id="path46"
       inkscape:connector-curvature="0"
       style="fill:#a5a5a5" />
    <path
       class="cls-7"
       d="M 1143.41,555.05 H 910.24 a 5.95,5.95 0 1 1 0,-11.89 h 233.17 a 5.95,5.95 0 1 1 0,11.89 z"
       id="path48"
       inkscape:connector-curvature="0"
       style="fill:#a5a5a5" />
  </g>
</svg>
