<?xml version="1.0" encoding="UTF-8" standalone="no"?>
<svg
   xmlns:dc="http://purl.org/dc/elements/1.1/"
   xmlns:cc="http://creativecommons.org/ns#"
   xmlns:rdf="http://www.w3.org/1999/02/22-rdf-syntax-ns#"
   xmlns:svg="http://www.w3.org/2000/svg"
   xmlns="http://www.w3.org/2000/svg"
   xmlns:sodipodi="http://sodipodi.sourceforge.net/DTD/sodipodi-0.dtd"
   xmlns:inkscape="http://www.inkscape.org/namespaces/inkscape"
   width="18"
   height="18"
   viewBox="0 0 18 18"
   fill="none"
   version="1.1"
   id="svg4"
   sodipodi:docname="call.svg"
   inkscape:version="0.92.4 (5da689c313, 2019-01-14)">
  <metadata
     id="metadata10">
    <rdf:RDF>
      <cc:Work
         rdf:about="">
        <dc:format>image/svg+xml</dc:format>
        <dc:type
           rdf:resource="http://purl.org/dc/dcmitype/StillImage" />
      </cc:Work>
    </rdf:RDF>
  </metadata>
  <defs
     id="defs8" />
  <sodipodi:namedview
     pagecolor="#ffffff"
     bordercolor="#666666"
     borderopacity="1"
     objecttolerance="10"
     gridtolerance="10"
     guidetolerance="10"
     inkscape:pageopacity="0"
     inkscape:pageshadow="2"
     inkscape:window-width="775"
     inkscape:window-height="480"
     id="namedview6"
     showgrid="false"
     inkscape:zoom="13.111111"
     inkscape:cx="9"
     inkscape:cy="9"
     inkscape:window-x="0"
     inkscape:window-y="27"
     inkscape:window-maximized="0"
     inkscape:current-layer="svg4" />
  <path
     fill-rule="evenodd"
     clip-rule="evenodd"
     d="M1 0H4.5C5.04999 0 5.5 0.450012 5.5 1C5.5 2.25 5.70001 3.45001 6.07001 4.57001C6.17999 4.92001 6.09998 5.31 5.82001 5.59L3.62 7.79001C5.06 10.62 7.38 12.93 10.21 14.38L12.41 12.18C12.61 11.99 12.86 11.89 13.12 11.89C13.22 11.89 13.33 11.9 13.43 11.94C14.55 12.31 15.76 12.51 17 12.51C17.55 12.51 18 12.96 18 13.51V17C18 17.55 17.55 18 17 18C7.60999 18 0 10.39 0 1C0 0.450012 0.450012 0 1 0ZM3.54004 2C3.60004 2.89001 3.75 3.76001 3.99005 4.59L2.79004 5.79001C2.38 4.59 2.12006 3.32001 2.03003 2H3.54004ZM13.4 14.02C14.25 14.26 15.12 14.41 16 14.47V15.96C14.68 15.87 13.41 15.61 12.2 15.21L13.4 14.02Z"
     fill="black"
     fill-opacity="0.54"
     id="path2"
     style="fill:#ffffff;fill-opacity:1" />
</svg>
