<?xml version="1.0" encoding="UTF-8" standalone="no"?>
<svg
   xmlns:dc="http://purl.org/dc/elements/1.1/"
   xmlns:cc="http://creativecommons.org/ns#"
   xmlns:rdf="http://www.w3.org/1999/02/22-rdf-syntax-ns#"
   xmlns:svg="http://www.w3.org/2000/svg"
   xmlns="http://www.w3.org/2000/svg"
   xmlns:sodipodi="http://sodipodi.sourceforge.net/DTD/sodipodi-0.dtd"
   xmlns:inkscape="http://www.inkscape.org/namespaces/inkscape"
   version="1.0"
   width="100%"
   height="100%"
   viewBox="0 0 747.84998 426.51801"
   preserveAspectRatio="xMidYMid meet"
   id="svg8"
   sodipodi:docname="down-arrow.svg"
   inkscape:version="0.92.4 (5da689c313, 2019-01-14)">
  <defs
     id="defs12" />
  <sodipodi:namedview
     pagecolor="#ffffff"
     bordercolor="#666666"
     borderopacity="1"
     objecttolerance="10"
     gridtolerance="10"
     guidetolerance="10"
     inkscape:pageopacity="0"
     inkscape:pageshadow="2"
     inkscape:window-width="815"
     inkscape:window-height="480"
     id="namedview10"
     showgrid="false"
     inkscape:zoom="0.18925781"
     inkscape:cx="498.46667"
     inkscape:cy="283.99999"
     inkscape:window-x="0"
     inkscape:window-y="27"
     inkscape:window-maximized="0"
     inkscape:current-layer="svg8" />
  <metadata
     id="metadata2">
Created by potrace 1.15, written by Peter Selinger 2001-2017
<rdf:RDF>
  <cc:Work
     rdf:about="">
    <dc:format>image/svg+xml</dc:format>
    <dc:type
       rdf:resource="http://purl.org/dc/dcmitype/StillImage" />
  </cc:Work>
</rdf:RDF>
</metadata>
  <g
     transform="matrix(0.1,0,0,-0.1,-266.15,587.01801)"
     id="g6"
     style="fill:#000000;stroke:none">
    <path
       d="m 3050,5851 c -195,-63 -334,-214 -375,-408 -18,-86 -18,-140 0,-226 17,-83 53,-164 97,-220 18,-23 757,-771 1643,-1661 1041,-1047 1630,-1632 1666,-1656 96,-62 152,-75 324,-75 166,0 218,13 316,75 53,35 3236,3227 3304,3314 68,89 115,224 115,336 0,238 -165,454 -399,524 -83,24 -230,21 -312,-7 -126,-43 -158,-71 -616,-531 -242,-243 -883,-888 -1426,-1434 l -987,-992 -982,987 C 3538,5768 3531,5775 3465,5808 c -33,16 -84,37 -114,46 -75,22 -229,21 -301,-3 z"
       id="path4"
       inkscape:connector-curvature="0" />
  </g>
</svg>
