<?xml version="1.0" encoding="UTF-8" standalone="no"?>
<!-- Created with Inkscape (http://www.inkscape.org/) -->

<svg
   xmlns:dc="http://purl.org/dc/elements/1.1/"
   xmlns:cc="http://creativecommons.org/ns#"
   xmlns:rdf="http://www.w3.org/1999/02/22-rdf-syntax-ns#"
   xmlns:svg="http://www.w3.org/2000/svg"
   xmlns="http://www.w3.org/2000/svg"
   xmlns:xlink="http://www.w3.org/1999/xlink"
   xmlns:sodipodi="http://sodipodi.sourceforge.net/DTD/sodipodi-0.dtd"
   xmlns:inkscape="http://www.inkscape.org/namespaces/inkscape"
   width="12.101836mm"
   height="12.157271mm"
   viewBox="0 0 12.101836 12.157271"
   version="1.1"
   id="svg8"
   inkscape:version="0.92.4 (5da689c313, 2019-01-14)"
   sodipodi:docname="globe.svg">
  <defs
     id="defs2" />
  <sodipodi:namedview
     id="base"
     pagecolor="#ffffff"
     bordercolor="#666666"
     borderopacity="1.0"
     inkscape:pageopacity="0.0"
     inkscape:pageshadow="2"
     inkscape:zoom="0.35"
     inkscape:cx="-1031.5148"
     inkscape:cy="-2.7459838"
     inkscape:document-units="mm"
     inkscape:current-layer="layer1"
     showgrid="false"
     inkscape:window-width="1920"
     inkscape:window-height="1027"
     inkscape:window-x="0"
     inkscape:window-y="27"
     inkscape:window-maximized="1" />
  <metadata
     id="metadata5">
    <rdf:RDF>
      <cc:Work
         rdf:about="">
        <dc:format>image/svg+xml</dc:format>
        <dc:type
           rdf:resource="http://purl.org/dc/dcmitype/StillImage" />
        <dc:title />
      </cc:Work>
    </rdf:RDF>
  </metadata>
  <g
     inkscape:label="Layer 1"
     inkscape:groupmode="layer"
     id="layer1"
     transform="translate(-92.249006,-135.94952)">
    
    <path
       style="fill:#fff;stroke-width:0.26458335"
       d="m 95.760267,147.48615 c -1.576469,-0.74342 -2.295045,-1.475 -3.020476,-3.07514 -0.951997,-2.09988 -0.487275,-4.83481 1.118669,-6.58345 0.87361,-0.95124 3.052566,-1.87804 4.415348,-1.87804 1.362783,0 3.541742,0.9268 4.415352,1.87804 0.90209,0.98224 1.65813,2.89419 1.66167,4.2022 0.004,1.36275 -0.92023,3.53867 -1.87482,4.41535 -0.98224,0.90209 -2.894193,1.65813 -4.202202,1.66167 -0.706409,0.002 -1.728642,-0.25049 -2.513541,-0.62063 z m 2.248958,-1.22305 c 0,-1.19673 -0.05679,-1.32253 -0.595312,-1.31887 -1.113839,0.008 -1.357245,0.3571 -0.884853,1.27061 0.339802,0.6571 1.022828,1.31555 1.414019,1.36313 0.03638,0.004 0.06615,-0.58727 0.06615,-1.31487 z m 2.006585,-0.043 c 0.47514,-0.9188 0.2335,-1.26832 -0.882106,-1.27591 -0.539077,-0.004 -0.595312,0.1218 -0.595312,1.32818 0,1.24792 0.03331,1.31439 0.526428,1.05049 0.289535,-0.15496 0.717482,-0.6512 0.95099,-1.10276 z m -3.937068,0.0724 c -0.420866,-0.76834 -0.679334,-0.98612 -1.020565,-0.85989 -0.751023,0.27782 -0.671902,0.64271 0.278196,1.28298 1.251264,0.84322 1.392047,0.76299 0.742369,-0.42309 z m 5.112788,0.43363 c 0.94163,-0.63751 1.03032,-1.02259 0.29791,-1.29352 -0.34123,-0.12623 -0.5997,0.0915 -1.02056,0.85989 -0.647697,1.18245 -0.507586,1.26653 0.72265,0.43363 z m -5.874436,-1.94756 c 0.0473,-0.0299 0.004,-0.60116 -0.09619,-1.26934 l -0.182181,-1.21487 H 93.87814 c -1.356598,0 -1.443137,0.27796 -0.63846,2.0507 0.494539,1.0895 0.533656,1.11471 1.25096,0.80632 0.407252,-0.17508 0.779155,-0.34285 0.826452,-0.37281 z m 7.990926,-0.43369 c 0.80459,-1.77255 0.71803,-2.05052 -0.63854,-2.05052 h -1.16059 l -0.18218,1.21487 c -0.1002,0.66818 -0.14348,1.2401 -0.0962,1.27092 0.11365,0.0741 1.38652,0.64832 1.488,0.6713 0.0435,0.01 0.30877,-0.48811 0.5895,-1.10657 z m -5.761816,0.0698 c 0.3632,-0.003 0.463021,-0.23178 0.463021,-1.06195 V 142.2944 H 96.8186 c -1.059404,0 -1.190227,0.0656 -1.187012,0.59531 0.0078,1.27792 0.304772,1.8364 0.89272,1.67859 0.307381,-0.0825 0.767235,-0.15164 1.021896,-0.15362 z m 3.206676,-0.33435 c 0.0877,-0.32742 0.16116,-0.8632 0.16315,-1.19062 0.003,-0.5297 -0.12761,-0.59531 -1.187013,-0.59531 h -1.190625 v 1.04076 c 0,1.08738 -0.03047,1.06479 1.755078,1.30084 0.16493,0.0218 0.37166,-0.22824 0.45941,-0.55567 z m -5.531974,-3.52997 c 0.1002,-0.66818 0.143485,-1.23939 0.09619,-1.26935 -0.0473,-0.03 -0.4192,-0.19772 -0.826452,-0.37281 -0.717304,-0.30838 -0.756421,-0.28317 -1.25096,0.80633 -0.804677,1.77274 -0.718138,2.0507 0.63846,2.0507 h 1.160583 z m 2.788319,0.19116 c 0,-0.97537 -0.04621,-1.03122 -0.978294,-1.18247 -0.538062,-0.0873 -1.024322,-0.11273 -1.080579,-0.0565 -0.05626,0.0563 -0.167483,0.58836 -0.247169,1.18247 L 95.5583,141.7652 h 1.225463 1.225462 z m 2.835205,-0.0565 c -0.0797,-0.59411 -0.19091,-1.12622 -0.24716,-1.18247 -0.0563,-0.0563 -0.54252,-0.0309 -1.080584,0.0565 -0.932087,0.15125 -0.978294,0.2071 -0.978294,1.18247 v 1.02371 h 1.225462 1.225466 z m 2.97982,0.61716 c -0.003,-0.25466 -0.23554,-0.96912 -0.51632,-1.58768 -0.49453,-1.0895 -0.53365,-1.11471 -1.25096,-0.80633 -0.40725,0.17509 -0.77915,0.34285 -0.82645,0.37281 -0.0473,0.03 -0.004,0.60117 0.0962,1.26935 l 0.18218,1.21487 h 1.16059 c 0.93114,0 1.15943,-0.0915 1.15477,-0.46302 z m -5.815025,-3.51504 c 0,-1.24793 -0.03331,-1.3144 -0.526428,-1.05049 -0.289535,0.15496 -0.717482,0.65119 -0.950993,1.10275 -0.475133,0.91881 -0.233496,1.26832 0.882109,1.27592 0.539077,0.004 0.595312,-0.1218 0.595312,-1.32818 z m 2.075475,1.0987 c 0.29377,-0.18618 0.28178,-0.36833 -0.0689,-1.04644 -0.233508,-0.45156 -0.661455,-0.94779 -0.95099,-1.10275 -0.493118,-0.26391 -0.526428,-0.19744 -0.526428,1.05049 0,1.20638 0.05624,1.33184 0.595312,1.32818 0.327422,-0.002 0.755369,-0.1055 0.950996,-0.22948 z m -3.549672,-2.10109 c -0.115097,-0.15373 -1.598311,0.70169 -1.948712,1.1239 -0.289568,0.34891 -0.24629,0.44702 0.283854,0.6435 0.545085,0.20202 0.696456,0.1088 1.177249,-0.72496 0.303455,-0.52623 0.522878,-0.99533 0.487609,-1.04244 z m 5.513082,1.39548 c 0.0313,-0.25488 -1.5653,-1.44211 -1.93936,-1.44211 -0.111915,0 0.0501,0.46302 0.36013,1.02893 0.441,0.80511 0.67071,0.98932 1.05597,0.8468 0.2708,-0.10018 0.50627,-0.29531 0.52326,-0.43362 z"
       id="path75"
       inkscape:connector-curvature="0" />
  </g>
</svg>
