<?xml version="1.0" standalone="no"?>
<!DOCTYPE svg PUBLIC "-//W3C//DTD SVG 20010904//EN"
 "http://www.w3.org/TR/2001/REC-SVG-20010904/DTD/svg10.dtd">
<svg version="1.0" xmlns="http://www.w3.org/2000/svg"
 width="100%" height="100%" viewBox="0 0 225.000000 225.000000"
 preserveAspectRatio="xMidYMid meet">
<metadata>
Created by potrace 1.15, written by Peter Selinger 2001-2017
</metadata>
<g transform="translate(0.000000,225.000000) scale(0.100000,-0.100000)"
fill="#000000" stroke="none">
<path d="M1209 2119 c-230 -23 -555 -126 -752 -239 -339 -194 -410 -501 -242
-1053 123 -406 293 -619 545 -683 76 -20 249 -22 355 -4 248 40 564 152 719
255 278 184 350 451 240 890 -86 342 -221 606 -370 719 -127 98 -290 135 -495
115z m252 -53 c174 -37 317 -163 421 -371 34 -67 91 -221 123 -331 177 -606
44 -885 -514 -1078 -205 -72 -423 -116 -566 -116 -256 1 -444 138 -570 415
-64 139 -124 329 -161 505 -23 107 -25 323 -5 395 63 222 249 375 596 488 302
98 514 127 676 93z"/>
<path d="M1163 1769 c-78 -23 -102 -102 -64 -212 l20 -56 -97 -32 c-53 -18
-102 -34 -108 -36 -7 -3 -19 18 -29 49 -26 80 -42 106 -75 123 -73 38 -158 3
-181 -74 -9 -31 -8 -48 10 -105 20 -65 20 -86 1 -86 -5 0 -35 -9 -65 -21 -40
-15 -62 -30 -76 -53 -37 -61 -17 -151 41 -181 39 -20 75 -19 144 5 l57 19 10
-27 c18 -44 59 -165 59 -172 0 -3 -25 -14 -55 -24 -99 -31 -145 -94 -124 -169
19 -71 84 -102 164 -81 109 30 99 33 120 -36 31 -102 102 -150 175 -120 74 31
98 106 65 200 -8 23 -15 48 -15 55 0 8 44 28 104 48 l104 35 18 -61 c23 -76
54 -114 105 -127 33 -9 47 -8 83 8 36 16 47 28 61 66 17 45 17 49 -3 118 -12
40 -20 73 -19 75 2 1 32 12 67 25 78 28 110 67 110 134 0 34 -7 51 -31 78 -41
48 -80 54 -164 26 -36 -12 -68 -20 -69 -19 -12 14 -64 194 -58 199 4 4 30 15
57 25 73 27 92 42 110 89 21 56 5 110 -44 143 -42 28 -81 29 -155 3 -42 -14
-58 -16 -61 -7 -33 95 -50 130 -76 152 -17 14 -37 25 -44 25 -7 0 -19 2 -27 4
-7 2 -27 0 -45 -5z m84 -54 c13 -9 32 -46 48 -95 15 -44 31 -82 36 -86 5 -3
47 7 94 22 l85 28 27 -20 c39 -29 51 -68 32 -102 -11 -20 -34 -34 -94 -55 -44
-15 -82 -33 -86 -39 -4 -6 13 -71 38 -144 50 -150 45 -146 138 -114 77 27 110
26 140 -5 54 -53 19 -111 -87 -145 -36 -11 -71 -27 -77 -34 -9 -10 -5 -32 14
-84 14 -38 25 -81 25 -96 0 -31 -29 -63 -66 -72 -44 -11 -75 22 -108 114 -15
45 -33 82 -40 82 -28 0 -286 -93 -286 -103 0 -7 12 -47 26 -90 29 -88 24 -125
-22 -146 -63 -28 -95 -4 -129 99 -15 44 -31 82 -36 86 -5 3 -47 -7 -94 -22
l-85 -28 -27 20 c-39 29 -51 68 -32 102 11 20 34 34 94 55 44 15 82 33 86 39
4 6 -13 71 -38 144 -50 150 -45 146 -138 114 -77 -27 -110 -26 -140 5 -54 53
-19 111 87 145 36 11 71 27 77 34 7 9 3 35 -16 92 -30 94 -27 126 17 149 38
20 52 19 83 -5 17 -13 34 -47 52 -100 15 -44 32 -80 38 -80 29 0 287 93 287
103 0 7 -12 47 -26 90 -22 66 -24 82 -14 106 19 47 76 64 117 36z"/>
<path d="M1075 1274 c-71 -25 -134 -49 -138 -53 -10 -10 68 -258 87 -279 9 -9
39 -3 146 33 74 25 138 49 143 54 9 9 -66 254 -86 279 -12 15 1 18 -152 -34z
m161 -116 c18 -54 29 -99 26 -102 -31 -17 -205 -66 -212 -60 -4 5 -21 51 -38
102 -22 66 -27 94 -19 97 83 32 185 63 196 62 8 -1 28 -42 47 -99z"/>
</g>
</svg>
