<?xml version="1.0" encoding="UTF-8" standalone="no"?>
<svg
   xmlns:dc="http://purl.org/dc/elements/1.1/"
   xmlns:cc="http://creativecommons.org/ns#"
   xmlns:rdf="http://www.w3.org/1999/02/22-rdf-syntax-ns#"
   xmlns:svg="http://www.w3.org/2000/svg"
   xmlns="http://www.w3.org/2000/svg"
   xmlns:sodipodi="http://sodipodi.sourceforge.net/DTD/sodipodi-0.dtd"
   xmlns:inkscape="http://www.inkscape.org/namespaces/inkscape"
   viewBox="0 0 1280 1191"
   height="1191"
   width="1280"
   id="svg3991"
   version="1.1"
   sodipodi:docname="og_img.svg"
   inkscape:version="0.92.4 (5da689c313, 2019-01-14)">
  <sodipodi:namedview
     pagecolor="#ffffff"
     bordercolor="#666666"
     borderopacity="1"
     objecttolerance="10"
     gridtolerance="10"
     guidetolerance="10"
     inkscape:pageopacity="0"
     inkscape:pageshadow="2"
     inkscape:window-width="1920"
     inkscape:window-height="1016"
     id="namedview7"
     showgrid="false"
     inkscape:zoom="0.19815281"
     inkscape:cx="-253.25001"
     inkscape:cy="575.31355"
     inkscape:window-x="0"
     inkscape:window-y="27"
     inkscape:window-maximized="1"
     inkscape:current-layer="svg3991" />
  <metadata
     id="metadata3997">
    <rdf:RDF>
      <cc:Work
         rdf:about="">
        <dc:format>image/svg+xml</dc:format>
        <dc:type
           rdf:resource="http://purl.org/dc/dcmitype/StillImage" />
        <dc:title />
      </cc:Work>
    </rdf:RDF>
  </metadata>
  <defs
     id="defs3995" />
  <path
     id="path4001"
     d="m 10.640165,1179.9884 c -2.0758772,-2.9148 -2.167435,-3.9757 -0.636667,-7.3756 1.655671,-3.6774 9.349636,-10.3118 11.95861,-10.3118 0.623669,0 3.929499,-2.1074 7.346245,-4.683 l 6.212085,-4.6831 -0.304487,-9.9402 c -0.167431,-5.4671 0.02826,-17.2519 0.435749,-26.1884 0.532957,-11.6961 0.181702,-18.2508 -1.253834,-23.3972 -1.524834,-5.4659 -1.662028,-8.9853 -0.582833,-14.9481 1.784388,-9.8597 1.772378,-32.2508 -0.02119,-38.7275 -1.466905,-5.2984 -5.052354,-7.417 -12.552042,-7.417 -9.416045,0 -14.774721,-6.1108 -9.134731,-10.417 3.350622,-2.5581 22.404257,-0.5263 31.326482,3.3404 4.031653,1.7473 8.937062,3.177 10.900753,3.177 4.179162,0 14.446214,-3.0553 23.450247,-6.9785 9.019012,-3.9297 20.0287,-3.6852 28.274278,0.6277 3.48838,1.8247 8.88577,4.6223 11.9942,6.217 7.62333,3.9109 10.02898,6.7698 12.63429,15.0147 2.07757,6.5747 1.83864,11.116 -0.58497,11.116 -2.21349,0 -8.34757,-5.3694 -16.12547,-14.1154 -9.06549,-10.194 -15.056739,-13.1813 -26.435343,-13.1813 -6.762845,0 -7.592235,0.3957 -15.666702,7.4741 -11.494606,10.0765 -17.495034,18.7717 -22.378402,32.4284 l -4.091136,11.4414 4.361289,7.799 c 9.467757,16.9304 14.261121,22.5405 24.583136,28.7723 5.127802,3.0956 18.803688,3.5451 26.748168,0.879 8.83109,-2.9636 11.50746,-4.7756 17.87695,-12.1034 7.52781,-8.6602 9.67517,-13.363 9.67517,-21.1889 0,-7.6921 2.07489,-14.7735 5.21725,-17.8064 1.79018,-1.7279 2.24951,-1.6651 4.03518,0.5507 3.46337,4.2978 4.0561,11.0594 1.53657,17.5271 -1.279,3.283 -2.3223,7.8307 -2.31835,10.1056 0.0141,5.6284 -11.50096,26.2508 -18.19259,32.5942 -9.74172,9.2349 -20.541734,10.369 -41.479795,4.3559 -18.943569,-5.4401 -19.291856,-5.4813 -22.375433,-2.6445 -2.099331,1.9315 -2.721019,4.3396 -2.721019,10.5418 0,15.7006 7.609755,23.4627 24.985113,25.4857 10.154018,1.1822 12.446637,3.8806 7.465072,8.7858 -6.226356,6.1306 -10.321449,7.1871 -32.911083,8.489 -11.791744,0.6797 -25.351628,1.5852 -30.132981,2.0124 -8.246846,0.7364 -8.818092,0.6015 -11.1182,-2.6279 z m 304.082905,1.2253 c -5.81011,-5.3452 -1.58206,-12.0056 13.2089,-20.8082 10.7654,-6.4066 11.99225,-8.538 10.13142,-17.6022 -0.69319,-3.3772 -0.65093,-7.772 0.10027,-10.3987 0.71551,-2.5023 0.94313,-7.3683 0.50583,-10.8134 -0.43744,-3.4451 -0.21023,-9.1012 0.50457,-12.5692 1.01618,-4.9291 0.73669,-8.1741 -1.28054,-14.8664 -2.23597,-7.4181 -2.34744,-9.4827 -0.83519,-15.4671 1.80191,-7.1315 0.83971,-38.1488 -1.32574,-42.7351 -0.67327,-1.426 -3.38567,-2.499 -7.63081,-3.0187 -13.56187,-1.6604 -17.62079,-4.7272 -13.08148,-9.8842 2.4547,-2.7889 2.97733,-2.8452 14.4116,-1.5532 6.52562,0.7372 15.23407,2.7242 19.35234,4.4152 7.3704,3.0265 7.62614,3.0414 16.3045,0.9474 4.84917,-1.1701 12.40679,-3.6381 16.79464,-5.4845 12.47786,-5.2507 19.20086,-4.2551 36.41783,5.3931 10.69094,5.991 14.82643,10.9242 16.19471,19.3187 1.5668,9.6119 -0.7983,10.0342 -9.92893,1.7728 -4.31254,-3.902 -9.05038,-8.8801 -10.52845,-11.0624 -3.70244,-5.4659 -13.3971,-9.6805 -22.26791,-9.6805 -6.64147,0 -7.78975,0.5115 -16.25193,7.2403 -12.77077,10.1547 -20.96462,23.6992 -25.99197,42.9642 -0.42501,1.6288 0.67199,4.8258 2.67609,7.7991 1.86803,2.7713 4.28428,7.0861 5.36928,9.5883 2.29346,5.2889 14.46301,17.6305 19.96638,20.2486 6.56206,3.1219 18.17112,3.6866 25.97699,1.264 9.94956,-3.0881 12.38052,-4.8237 20.39224,-14.5601 6.51798,-7.921 7.10973,-9.2293 7.10973,-15.7202 0,-8.5466 3.58432,-20.6196 6.4188,-21.6202 5.60748,-1.9796 8.44974,11.4346 4.34009,20.4832 -1.25468,2.7625 -2.28131,7.0935 -2.28131,9.6243 0,2.5308 -1.49941,6.9925 -3.33213,9.915 -1.83269,2.9225 -3.73917,6.8739 -4.23652,8.7811 -0.49735,1.9071 -4.13324,6.7178 -8.0797,10.6902 -11.49361,11.5692 -21.16595,12.631 -46.35101,5.0877 l -16.07899,-4.816 -3.34878,3.5815 c -6.0732,6.4955 -3.70075,21.8197 4.47645,28.9146 4.49875,3.9033 13.72561,7.0181 20.78913,7.0181 1.83864,0 4.542,0.8064 6.00721,1.7923 2.50386,1.6842 2.52448,1.9883 0.34221,5.0522 -5.04401,7.082 -10.28656,8.6438 -33.70911,10.0422 -11.95818,0.7138 -25.59323,1.6645 -30.30041,2.1122 -6.96518,0.6628 -9.00347,0.4048 -10.9502,-1.386 z m 141.3715,-0.358 c -5.42126,-5.5111 -1.65397,-11.7647 11.52357,-19.129 4.54172,-2.5381 9.10563,-5.5549 10.14229,-6.7038 1.38227,-1.5323 1.96779,-8.1107 2.1964,-24.6767 0.17153,-12.4231 0.7247,-23.202 1.22911,-23.9529 0.50457,-0.7511 -0.20799,-5.7573 -1.58362,-11.125 -2.08124,-8.1217 -2.23722,-11.0053 -0.92942,-17.1829 1.87454,-8.8544 1.1435,-35.7448 -1.10773,-40.7446 -1.25906,-2.7965 -2.82106,-3.7062 -7.46804,-4.3498 -16.02939,-2.2197 -18.33927,-3.7097 -14.3767,-9.2733 2.38785,-3.3528 2.62635,-3.3967 13.64098,-2.5128 7.30485,0.5862 13.95211,2.0543 19.07936,4.2137 9.75246,4.1075 15.06351,3.6387 31.64085,-2.7933 17.61571,-6.8347 22.68967,-6.1309 42.81771,5.9399 9.03272,5.4169 9.64268,6.106 12.23935,13.8272 5.44289,16.1845 -0.2108,16.0586 -14.83831,-0.3306 -11.26217,-12.6186 -15.53614,-14.9447 -27.45957,-14.9447 -6.40015,0 -7.76319,0.5692 -14.52788,6.0671 -4.10583,3.3368 -8.6337,7.2852 -10.06203,8.7739 -4.79732,5.0004 -11.96497,18.228 -14.96194,27.6119 l -2.97252,9.3069 6.46345,11.4907 c 6.58537,11.7075 13.45984,19.4404 21.23096,23.882 6.62479,3.7865 18.56179,4.6239 27.40263,1.9225 8.88974,-2.7163 14.50557,-7.0515 21.8593,-16.8741 4.86188,-6.4943 5.50704,-8.2288 5.33239,-14.335 -0.26421,-9.2386 3.96638,-20.8003 7.61103,-20.8003 1.9254,0 3.23108,1.5699 4.58919,5.5181 1.70795,4.9653 1.60184,6.3254 -1.0597,13.5758 -1.62685,4.4317 -2.95782,10.2022 -2.95782,12.8232 0,2.8562 -1.32788,6.5658 -3.31417,9.2586 -1.82282,2.4711 -3.7598,6.126 -4.30435,8.1221 -0.54455,1.9959 -4.22635,6.7769 -8.18156,10.6244 -11.10435,10.8014 -21.03571,12.171 -42.69039,5.8867 -19.50381,-5.6601 -19.86637,-5.7012 -22.90783,-2.6054 -2.03179,2.0679 -2.65277,4.6294 -2.59499,10.7026 0.1427,15.0103 8.35197,23.3486 24.74577,25.1347 13.35599,1.4553 14.34053,5.2496 3.23828,12.4795 -5.277,3.4364 -6.8007,3.7021 -28.12307,4.9048 -12.39917,0.6995 -26.04186,1.611 -30.31724,2.0254 -6.53551,0.6336 -8.16673,0.3537 -10.24374,-1.7575 z m -224.30028,-35.062 c -14.74308,-1.47 -20.46742,-3.0925 -24.92097,-7.0636 -2.50554,-2.2341 -8.57323,-6.4803 -13.48387,-9.4359 -7.13968,-4.2973 -9.29453,-6.4023 -10.75677,-10.5082 -1.00573,-2.8238 -3.40827,-7.0396 -5.33917,-9.3686 -4.10528,-4.9515 -11.88543,-28.61 -11.89815,-36.1804 -0.0141,-5.7638 6.96418,-22.4287 11.95678,-28.5721 1.74284,-2.1446 4.55838,-6.4089 6.25644,-9.4762 3.43144,-6.1978 4.99782,-6.9637 19.21924,-9.3963 5.43893,-0.9303 13.70456,-3.3521 18.36808,-5.3817 9.67687,-4.2117 14.36087,-4.4644 32.38053,-1.7476 13.30669,2.0063 21.94647,5.8037 32.06219,14.0922 5.97739,4.8976 8.70592,9.4737 10.97621,18.409 0.90822,3.5745 2.68965,8.6976 3.95861,11.3847 2.89933,6.1388 0.9684,13.2894 -5.09503,18.8676 l -4.06768,3.742 -29.45492,-0.4842 c -16.20024,-0.2662 -31.04461,-0.5431 -32.98739,-0.615 -6.40395,-0.2375 -30.81755,3.9566 -35.2184,6.0502 -6.24472,2.9709 -8.83391,7.2961 -8.31607,13.8916 0.4219,5.373 0.77598,5.7677 8.54921,9.5301 4.45992,2.1587 10.38123,5.8087 13.15848,8.1111 5.97428,4.9524 11.73847,6.6494 26.06557,7.6733 9.25554,0.6614 11.84911,0.3196 20.48748,-2.7003 5.43978,-1.9017 12.75169,-4.3951 16.24869,-5.5408 3.497,-1.1458 8.57224,-3.4523 11.27814,-5.1254 8.45738,-5.2296 14.15459,-3.4893 14.15459,4.3235 0,7.8384 -13.73197,17.139 -35.06806,23.7514 -8.13565,2.5213 -16.04905,3.0124 -28.51376,1.7696 z m 26.69857,-77.7059 c 15.9798,-2.5871 16.54823,-2.806 18.49157,-7.1221 2.15684,-4.7905 0.84932,-8.6998 -4.71142,-14.086 -10.69319,-10.3576 -27.17967,-15.3453 -46.12917,-13.9558 -14.06769,1.0315 -17.31587,2.5651 -28.71016,13.5547 -10.70506,10.325 -10.60842,14.5484 0.4753,20.7643 4.45568,2.4988 6.98836,2.7596 26.82066,2.7624 13.04035,0 26.6997,-0.7739 33.76322,-1.9175 z m 409.67875,76.8328 c -12.3254,-1.5009 -13.49333,-2.0163 -22.46882,-9.9164 -2.03053,-1.7873 -6.53156,-4.5485 -10.00213,-6.1362 -5.7981,-2.6521 -11.11198,-9.1044 -11.11198,-13.4923 0,-0.7384 -1.6376,-3.3176 -3.63915,-5.7317 -2.00155,-2.4142 -4.54483,-7.3471 -5.65172,-10.962 -1.10689,-3.615 -2.95867,-9.6435 -4.11516,-13.3968 -3.44287,-11.1739 -2.7716,-17.8672 2.91178,-29.0347 2.7764,-5.4555 6.82134,-12.1712 8.98877,-14.9238 2.16743,-2.7527 4.71282,-6.7195 5.65652,-8.8153 1.59138,-3.5346 2.6539,-3.9752 14.67779,-6.0879 7.12908,-1.2527 15.50534,-3.6261 18.6138,-5.2743 7.9206,-4.1998 15.47792,-4.984 29.91001,-3.1037 15.97826,2.0816 21.22701,3.8342 30.63796,10.23 10.89552,7.4048 12.97013,10.365 18.58229,26.514 5.3437,15.3763 5.28068,18.7864 -0.46387,25.1055 -4.75662,5.2323 -7.92922,5.8978 -23.95919,5.0256 -8.32978,-0.4533 -17.68845,-0.3027 -20.7969,0.3347 -3.75387,0.7697 -8.49849,0.6176 -14.1293,-0.4533 -6.9892,-1.329 -10.16814,-1.2855 -18.10725,0.248 -5.29623,1.023 -11.83866,1.8599 -14.53876,1.8599 -6.11205,0 -15.33467,4.2163 -18.28557,8.3596 -1.40135,1.9674 -2.06386,5.2142 -1.78694,8.7568 0.41936,5.3639 0.79295,5.7938 7.90097,9.0895 4.10343,1.9026 9.93967,5.5197 12.96956,8.0379 6.41498,5.3317 12.24416,7.1017 27.0169,8.2036 8.99782,0.6711 12.04609,0.3394 19.05731,-2.0739 4.59048,-1.5801 8.98992,-3.3567 9.77649,-3.9481 0.78658,-0.5914 4.24783,-1.7686 7.69184,-2.616 3.44417,-0.8473 8.51927,-2.9518 11.27829,-4.6766 8.56348,-5.3534 14.2508,-3.2844 14.2508,5.1844 0,6.6555 -15.24239,16.5556 -34.97565,22.7167 -9.74342,3.0423 -17.24989,3.2465 -35.88869,0.9768 z m 32.54061,-76.8343 c 17.58857,-2.4303 18.09115,-2.6258 19.9298,-7.7509 1.86874,-5.2095 0.39251,-9.2045 -5.13035,-13.883 -12.7695,-10.817 -26.86897,-14.8548 -47.04024,-13.4712 l -13.34102,0.9151 -11.03201,9.9736 c -11.81604,10.6822 -13.3649,14.2034 -8.55953,19.4599 5.18856,5.6755 9.80163,6.6657 31.09377,6.6742 11.07894,0 26.41472,-0.8586 34.07958,-1.9177 z m 83.24401,68.969 c -5.21272,-1.6178 -10.45822,-3.6902 -11.65666,-4.6051 -5.71473,-4.3633 0.77117,-12.017 12.07291,-14.2468 7.68422,-1.5161 22.37826,-7.8961 25.07795,-10.8886 5.17344,-5.7348 8.36468,-53.1426 4.30478,-63.9497 -2.31481,-6.1616 -9.64227,-10.1202 -23.14733,-12.505 -9.83723,-1.7371 -12.69319,-3.6143 -11.36348,-7.4686 1.09699,-3.1795 6.87023,-4.8319 21.25893,-6.0844 12.41047,-1.0805 21.07187,0.9249 26.32047,6.0939 3.16595,3.1178 3.9969,5.2749 4.33755,11.2604 0.39662,6.967 0.64698,7.4278 4.24247,7.8095 3.39796,0.3606 4.29164,-0.4522 8.0722,-7.3421 3.91905,-7.142 9.9435,-13.2111 13.11425,-13.2111 0.72202,0 4.85949,-1.4925 9.19422,-3.3165 7.73296,-3.254 8.1372,-3.2868 21.45661,-1.7397 22.34223,2.5952 28.66268,6.901 31.68013,21.5819 2.17182,10.566 1.28449,13.3388 -5.47213,17.1006 -9.3146,5.1863 -15.72321,4.3308 -20.39789,-2.7225 -1.55168,-2.3414 -2.8236,-6.12 -2.82644,-8.3969 -0.0141,-6.129 -2.32427,-10.6515 -6.31169,-12.323 -2.80466,-1.1756 -5.51678,-0.9927 -13.09785,0.883 -12.47886,3.0876 -18.10019,6.6382 -29.15326,18.4139 -8.06897,8.5965 -9.37182,10.7603 -11.36278,18.8706 -1.23673,5.0383 -2.23695,10.99 -2.22267,13.2257 0.0452,7.0497 4.18918,26.0556 6.0048,27.54 3.51381,2.8731 29.27957,9.9984 33.40801,9.2388 4.50923,-0.8296 7.41901,1.3032 9.8703,7.2346 3.88555,9.4017 -13.08542,13.9253 -42.62794,11.3623 -8.56786,-0.7433 -16.11856,-1.6589 -16.77924,-2.0346 -0.66083,-0.3758 -5.0686,0.2283 -9.79514,1.3423 -10.8376,2.5543 -12.62042,2.4715 -24.20108,-1.1229 z m 177.15183,-0.762 c -6.86077,-2.8643 -10.60347,-6.3698 -13.68846,-12.8215 -7.4121,-15.501 6.87785,-31.3414 28.28204,-31.3504 8.33049,0 13.85179,3.7961 19.84672,13.6579 4.89534,8.0533 5.14584,8.9829 3.65524,13.56 -2.12914,6.5381 -6.40481,11.3277 -14.14159,15.8414 -7.66387,4.4714 -15.08344,4.816 -23.95395,1.1126 z M 106.06886,909.16958 c -3.03498,-1.09593 -4.98426,-3.13466 -7.819157,-8.17801 -2.375842,-4.22663 -2.454824,-11.79219 -1.492478,-142.91939 0.880255,-119.93458 1.300461,-138.86218 3.141224,-141.489 1.839921,-2.62563 20.076891,-14.10295 61.249371,-38.54705 5.82833,-3.46028 15.6835,-9.33346 21.9004,-13.0515 6.21688,-3.71805 21.15861,-12.60345 33.20384,-19.74532 12.04522,-7.14189 32.0735,-19.10379 44.50728,-26.58199 12.43377,-7.47822 27.51341,-16.48344 33.51031,-20.01161 l 10.90343,-6.41485 0.0467,-7.42535 c 0.0904,-14.24635 -8.67709,-29.09556 -21.91227,-37.11485 -8.03151,-4.8664 -13.42792,-6.50082 -25.3741,-7.68513 -7.01872,-0.69582 -9.26782,-1.56464 -13.0696,-5.04889 l -4.59201,-4.20845 v -30.80632 -30.80633 l 4.80395,-4.41948 4.80397,-4.41947 h 180.19456 180.19458 l 0.93662,-2.71485 c 1.32322,-3.83516 24.95784,-41.67075 37.97516,-60.79273 18.78561,-27.59511 30.63712,-42.69523 44.20251,-56.31914 5.2927,-5.31546 11.55253,-11.67649 13.91085,-14.13561 33.06312,-34.47675 53.91302,-51.15014 101.6819,-81.31347 54.56521,-34.45485 98.39782,-55.958483 145.53173,-71.395824 18.26424,-5.981907 28.10007,-8.755722 55.10427,-15.540123 25.3851,-6.377615 33.8888,-8.77048 35.2526,-9.919728 1.8006,-1.517355 2.261,-1.571924 -17.6943,2.097513 -45.45364,8.358154 -90.24422,20.768436 -122.04896,33.816525 -15.87173,6.511447 -46.70792,21.124757 -67.18029,31.836767 -11.26811,5.89596 -22.71284,11.86791 -25.43272,13.27099 -21.35827,11.01784 -51.23608,31.75645 -72.76587,50.50764 -16.711,14.55432 -24.03322,20.64676 -24.85866,20.68363 -0.46147,0.0207 -5.23009,4.86316 -10.59697,10.7612 -5.36701,5.89805 -10.95346,11.89358 -12.41456,13.32341 -11.73424,11.48327 -68.99278,86.56457 -77.07134,101.06099 -1.09489,1.96493 -2.2419,3.34166 -2.5488,3.05939 -0.30674,-0.28226 1.38976,-7.7963 3.76998,-16.69785 4.75847,-17.79519 5.39301,-28.35634 2.29022,-38.11745 -10.25801,-32.26976 -9.15211,-65.96869 2.96179,-90.2502 4.74476,-9.51077 15.94505,-26.50923 16.89255,-25.63758 0.26112,0.24024 -0.1116,2.45115 -0.82683,4.91316 -1.5911,5.47182 -5.78935,31.46187 -5.1736,32.02834 0.24388,0.22425 2.23399,-2.6661 4.42261,-6.42298 7.18193,-12.32804 22.98923,-36.59778 28.15403,-43.22636 5.60934,-7.1989 22.13892,-23.0663 23.10408,-22.17838 0.33784,0.31078 -1.40133,6.80237 -3.86476,14.42572 -3.9565,12.2437 -4.67936,18.12211 -1.73975,14.1475 4.34885,-5.88003 30.79182,-35.24953 44.78364,-49.73993 5.48159,-5.676894 26.06176,-21.501747 26.92733,-20.705424 0.36538,0.336132 -0.48323,2.016541 -1.88584,3.734248 -1.40261,1.717695 -7.88965,11.019641 -14.4157,20.670996 -6.52603,9.65135 -13.00855,18.93274 -14.40551,20.62534 -1.39696,1.69258 -2.15925,3.64403 -1.6941,4.33652 0.46527,0.6925 9.19916,-6.78823 19.40855,-16.62385 34.40667,-33.146852 59.69685,-51.293948 93.44791,-67.054198 42.76853,-19.971013 74.72489,-27.450882 165.31275,-38.694056 56.60832,-7.0258568 55.81482,-6.9761504 97.49212,-6.1078407 82.4477,1.7177184 130.7602,7.5805305 164.6062,19.9752707 14.0961,5.162153 27.3104,13.614556 24.6249,15.751086 -0.7213,0.573813 -6.398,2.075409 -12.615,3.336865 -32.2074,6.53514 -57.2716,14.601565 -83.5215,26.879876 -34.7795,16.267914 -62.9825,36.367837 -99.4528,70.878787 -23.9132,22.6283 -41.3295,36.69116 -63.7088,51.44141 -46.54205,30.67616 -69.77669,41.16678 -101.79184,45.96001 -12.61323,1.88841 -19.06366,2.02718 -46.43875,0.99902 -17.485,-0.65671 -32.37135,-0.74911 -33.08063,-0.20533 -4.47489,3.4302 50.05528,12.71209 75.40988,12.83593 10.27495,0.0502 10.51615,0.12166 6.75224,1.9999 -12.5786,6.27684 -57.76351,13.81411 -97.09015,16.19555 -12.80524,0.77544 -23.54337,1.65004 -23.86254,1.94358 -2.5923,2.3849 26.33884,7.2714 47.84363,8.08079 l 19.06677,0.71765 -8.9016,3.06252 c -18.11233,6.23143 -56.39255,9.28613 -81.51034,6.50437 -17.73043,-1.96363 1.03596,4.76875 26.84566,9.63078 8.05243,1.51692 8.26507,1.65307 4.23879,2.715 -10.0359,2.64701 -56.44795,10.18038 -71.35295,11.58166 -10.57096,0.99382 -26.74449,1.2309 -46.28572,0.67848 -19.33665,-0.54663 -30.9878,-0.38102 -32.70593,0.46488 -2.39901,1.1812 -9.68083,12.4389 -24.63456,38.08566 l -5.1158,8.77395 h 31.67208 c 17.47809,0 33.32084,0.5766 35.35065,1.28661 2.02318,0.70763 5.24367,2.8403 7.15664,4.73926 l 3.47819,3.45267 v 30.18124 c 0,28.58858 -0.15484,30.36243 -2.93534,33.61439 -4.13071,4.83096 -7.3998,6.14794 -18.42093,7.42104 -22.44609,2.59286 -39.33581,17.42326 -43.51201,38.20665 -2.48578,12.3705 -3.01294,11.58702 15.06254,22.3855 20.13691,12.02997 69.04476,41.32494 100.2948,60.07487 12.61535,7.56916 32.32571,19.37204 43.80083,26.22863 11.4751,6.85658 26.2963,15.71831 32.93594,19.69274 7.01336,4.19819 12.78602,8.66799 13.77606,10.6669 1.2958,2.61652 1.704,36.43969 1.704,141.20482 0,148.36563 0.22437,143.75628 -7.22983,148.55947 -3.02168,1.9471 -33.25329,2.11128 -371.39641,2.01702 -202.4588,-0.0564 -369.04926,-0.44291 -370.20108,-0.85882 z M 822.3988,756.97977 V 632.40534 l -13.77607,-8.14927 c -7.57683,-4.48211 -24.26705,-14.45638 -37.0894,-22.16504 -12.82233,-7.70867 -33.48642,-20.06263 -45.9202,-27.45324 -22.4749,-13.35907 -59.59822,-35.61546 -85.73501,-51.4004 l -13.67574,-8.25924 H 591.0884 555.97442 l -7.96285,19.17271 c -4.37952,10.545 -9.02395,22.95953 -10.32089,27.58788 -2.85115,10.17516 -4.18693,12.56203 -10.66436,19.0541 -5.8648,5.87818 -32.42716,28.38377 -32.42716,27.47473 0,-1.70323 9.0515,-34.2449 12.20955,-43.89531 1.98856,-6.07678 7.36674,-19.46323 11.95169,-29.74767 4.58495,-10.28444 8.33614,-18.91216 8.33614,-19.17271 0,-0.26056 -45.30205,-0.47146 -100.67122,-0.46868 l -100.67122,0.005 -13.62573,8.11896 c -7.49418,4.46544 -20.0393,11.92102 -27.87823,16.56797 -7.8388,4.64695 -28.87505,17.22295 -46.74705,27.94667 -17.87216,10.72371 -44.30707,26.51683 -58.74424,35.09581 -14.43732,8.57897 -31.45888,18.81526 -37.82568,22.74729 l -11.57627,7.14902 -0.3644,122.83535 c -0.20035,67.55944 -0.0664,123.55389 0.29728,124.43209 0.52039,1.2563 74.483,1.60485 346.8852,1.63471 l 346.22382,0.038 z m -413.63511,98.88275 -250.44174,-0.33217 v -86.32977 -86.32979 l 11.84119,-5.79498 c 31.76477,-15.5455 73.46231,-27.7631 114.61599,-33.5832 23.08953,-3.26541 70.43864,-4.68538 85.48224,-2.56357 35.56329,5.01592 66.78805,16.8205 121.51193,45.93785 40.90756,21.76596 67.2303,31.99211 93.25335,36.22801 21.4251,3.48746 73.88434,1.20603 110.2085,-4.79291 22.03322,-3.63879 52.18189,-10.86754 73.17999,-17.54636 11.4289,-3.63517 21.73355,-6.70826 22.89921,-6.8291 1.70201,-0.17643 2.11077,1.50849 2.07531,8.55425 -0.0241,4.82568 -0.18326,41.53005 -0.35323,81.56528 l -0.30916,72.79132 -66.76092,-0.32134 c -36.7185,-0.17675 -179.45969,-0.47083 -317.20266,-0.65352 z M 547.50376,473.6961 c 3.06437,-6.24892 7.99465,-15.98987 10.95628,-21.64656 2.96164,-5.65668 5.22303,-10.40136 5.02551,-10.54374 -0.19766,-0.14237 -54.56281,-0.61869 -120.81154,-1.05846 -100.79289,-0.66911 -120.45225,-0.51231 -120.45225,0.9607 0,0.96817 0.91262,2.45708 2.02798,3.30869 3.49814,2.67086 10.62764,20.28539 12.36031,30.53815 l 1.66062,9.82684 101.83081,-0.0118 101.83082,-0.0116 5.57146,-11.36167 z m 68.34848,1.55878 c 1.73253,-10.25276 8.86204,-27.86729 12.36017,-30.53815 1.11537,-0.85161 2.02798,-2.06168 2.02798,-2.68905 0,-0.62739 -8.5916,-1.1407 -19.09235,-1.1407 h -19.09235 l -3.67009,7.47411 c -3.79796,7.73467 -15.68479,32.23441 -17.02792,35.09582 -0.59145,1.25995 4.13226,1.62481 21.03556,1.62481 h 21.79826 z m 63.84068,-74.66309 V 390.19303 H 475.52461 271.35631 v 9.53219 c 0,5.24272 0.42387,9.92216 0.942,10.39876 0.51797,0.47662 92.39371,0.86657 204.16831,0.86657 h 203.2263 z"
     style="fill:#ffffff;fill-opacity:1;stroke-width:1.35520816"
     inkscape:connector-curvature="0" />
</svg>
