<?xml version="1.0" standalone="no"?>
<!DOCTYPE svg PUBLIC "-//W3C//DTD SVG 20010904//EN"
 "http://www.w3.org/TR/2001/REC-SVG-20010904/DTD/svg10.dtd">
<svg version="1.0" xmlns="http://www.w3.org/2000/svg"
 width="100%" height="100%" viewBox="0 0 225.000000 225.000000"
 preserveAspectRatio="xMidYMid meet">
<metadata>
Created by potrace 1.15, written by Peter Selinger 2001-2017
</metadata>
<g transform="translate(0.000000,225.000000) scale(0.100000,-0.100000)"
fill="#000000" stroke="none">
<path d="M485 2046 c-35 -15 -92 -76 -106 -113 -5 -14 -9 -304 -9 -694 l0
-669 -174 0 c-142 0 -176 -3 -186 -15 -9 -10 -11 -44 -8 -112 4 -117 28 -169
96 -218 l44 -30 610 -3 c609 -2 611 -2 656 19 29 15 54 37 73 67 29 46 29 46
29 210 l0 165 78 85 c388 425 633 773 657 933 10 66 -5 89 -55 89 -105 0 -313
-118 -570 -324 -52 -42 -98 -76 -102 -76 -5 0 -8 72 -8 160 l0 160 164 0 c133
0 166 3 176 15 9 10 11 44 8 112 -4 117 -28 169 -96 218 l-44 30 -601 2 c-482
2 -608 0 -632 -11z m153 -76 c56 -34 72 -73 72 -172 0 -65 4 -90 16 -102 13
-14 61 -16 365 -16 l349 0 -1 -197 -1 -198 -128 -112 -129 -113 -300 0 c-274
0 -301 -2 -310 -17 -6 -11 -6 -24 0 -35 9 -17 31 -18 269 -18 167 0 260 -4
260 -10 0 -5 -4 -10 -10 -10 -5 0 -26 -25 -47 -55 l-38 -54 -198 -1 c-117 0
-206 -4 -218 -10 -23 -13 -25 -55 -3 -64 9 -3 100 -6 203 -6 l187 0 -10 -65
-9 -65 -188 0 c-168 0 -189 -2 -198 -17 -6 -11 -6 -24 0 -35 9 -16 28 -18 204
-18 l195 0 0 -23 c0 -15 -26 -48 -76 -97 -84 -83 -97 -101 -88 -124 14 -36 54
-17 129 62 l74 77 108 1 c127 0 197 18 272 68 l51 35 0 -121 0 -120 -39 -39
-39 -39 -486 0 -486 0 23 43 22 42 5 782 c5 774 5 782 26 810 41 55 112 69
172 33z m1072 2 c50 -27 81 -91 78 -162 l-3 -55 -497 -3 -498 -2 0 47 c-1 66
-17 133 -41 166 l-20 27 473 0 c439 0 476 -1 508 -18z m431 -388 c-83 -178
-322 -488 -639 -831 -158 -170 -197 -194 -327 -201 l-82 -4 474 478 c482 489
504 514 444 522 -20 3 -101 -73 -497 -469 -260 -260 -476 -470 -480 -466 -13
13 15 166 40 215 61 120 646 620 906 774 47 28 108 59 135 69 49 17 50 17 53
-2 2 -11 -10 -49 -27 -85z m-1773 -1138 c7 -104 -47 -175 -137 -183 -63 -6
-109 20 -138 77 -22 43 -32 138 -16 154 4 3 70 5 147 4 l141 -3 3 -49z"/>
<path d="M583 1463 c-16 -6 -17 -45 -1 -61 9 -9 103 -12 359 -12 303 0 350 2
363 16 20 19 20 29 0 48 -13 14 -60 16 -362 15 -191 0 -353 -3 -359 -6z"/>
<path d="M574 1246 c-3 -8 -4 -23 -2 -33 3 -17 24 -18 367 -18 329 0 365 2
374 17 8 12 7 21 -2 32 -12 14 -57 16 -373 16 -303 0 -359 -2 -364 -14z"/>
</g>
</svg>
