<?xml version="1.0" encoding="UTF-8" standalone="no"?>
<svg
   xmlns:dc="http://purl.org/dc/elements/1.1/"
   xmlns:cc="http://creativecommons.org/ns#"
   xmlns:rdf="http://www.w3.org/1999/02/22-rdf-syntax-ns#"
   xmlns:svg="http://www.w3.org/2000/svg"
   xmlns="http://www.w3.org/2000/svg"
   xmlns:sodipodi="http://sodipodi.sourceforge.net/DTD/sodipodi-0.dtd"
   xmlns:inkscape="http://www.inkscape.org/namespaces/inkscape"
   viewBox="0 0 203 203"
   version="1.1"
   id="svg33"
   sodipodi:docname="icons_Social media content.svg"
   width="203"
   height="203"
   inkscape:version="0.92.4 (5da689c313, 2019-01-14)">
  <metadata
     id="metadata37">
    <rdf:RDF>
      <cc:Work
         rdf:about="">
        <dc:format>image/svg+xml</dc:format>
        <dc:type
           rdf:resource="http://purl.org/dc/dcmitype/StillImage" />
      </cc:Work>
    </rdf:RDF>
  </metadata>
  <sodipodi:namedview
     pagecolor="#ffffff"
     bordercolor="#666666"
     borderopacity="1"
     objecttolerance="10"
     gridtolerance="10"
     guidetolerance="10"
     inkscape:pageopacity="0"
     inkscape:pageshadow="2"
     inkscape:window-width="1920"
     inkscape:window-height="1027"
     id="namedview35"
     showgrid="false"
     inkscape:zoom="0.44923505"
     inkscape:cx="84.640015"
     inkscape:cy="126.22"
     inkscape:window-x="0"
     inkscape:window-y="27"
     inkscape:window-maximized="1"
     inkscape:current-layer="svg33" />
  <defs
     id="defs4">
    <style
       id="style2">.cls-1{fill:#fc808a;}.cls-2{fill:#e4e4e4;}.cls-3{fill:#2c3e50;}.cls-4{fill:#2d3f50;}.cls-5{fill:#aaacae;}.cls-6{fill:#b0b1b2;}.cls-7{fill:#334456;}.cls-8{fill:#38495a;}.cls-9{fill:#2d3f51;}.cls-10{fill:#f9d016;}</style>
  </defs>
  <title
     id="title6">icons</title>
  <g
     id="Layer_13"
     data-name="Layer 13"
     transform="translate(-274.85999,-165.22)">
    <circle
       class="cls-1"
       cx="376.35999"
       cy="266.72"
       r="101.5"
       id="circle8"
       style="fill:#fc808a" />
    <path
       class="cls-2"
       d="m 412.12,249.17 a 1.92,1.92 0 0 0 2,2.1 c -2,3.79 -6,3.28 -9.29,4.16 -8.15,2.17 -15.65,5.4 -21.39,11.88 -2.94,3.32 -5.39,7.15 -5.6,11.46 a 26.4,26.4 0 0 1 -5.61,15.07 4.71,4.71 0 0 0 -1.37,3.06 0.48,0.48 0 0 0 0.81,-0.17 c 2.89,-7.44 8.2,-9.72 16.08,-8.9 7.46,0.77 13.32,-4.17 19.34,-7.87 1.63,-1 2.6,-3.13 5,-2.81 l 0.08,4 c -0.48,5.81 -0.31,11.64 -0.51,17.46 -0.25,7.44 -3.7,11 -11.22,11.08 -16.81,0.2 -33.61,0.13 -50.42,0 -5.11,0 -5.79,-1.25 -5.65,-6.44 0.66,-23.45 0.35,-46.91 0.18,-70.37 -0.07,-9.12 -0.57,-9.12 8.81,-9.12 15.31,0 30.62,0 45.93,0 9,0 12.29,3.32 12.4,12.41 0.04,4.37 0.23,8.68 0.43,13 z"
       id="path10"
       inkscape:connector-curvature="0"
       style="fill:#e4e4e4" />
    <path
       class="cls-3"
       d="m 412.12,249.17 c -2.16,-0.92 -2,-2.8 -2,-4.65 0,-3.83 0.14,-7.66 0,-11.48 -0.23,-4.87 -2.65,-7.45 -7.52,-7.48 -19.29,-0.12 -38.59,-0.05 -58.49,-0.05 2.71,4.63 2.18,9.3 2.18,13.9 q 0,28.7 0,57.4 c 0,1.5 0.05,3 -0.06,4.49 -0.45,6.61 -0.46,6.61 6.15,6.61 q 24,0 47.92,0 c 8,0 10,-2 10,-10.08 0,-4.16 0,-8.32 0,-12.48 0,-1.7 -0.09,-3.39 1.86,-4.2 0.52,0.4 1.46,0.77 1.49,1.2 0.51,7.41 1.59,14.95 -0.6,22.18 -1.36,4.48 -5.19,6.83 -10,6.84 -22.46,0 -44.92,0.07 -67.38,0 a 11,11 0 0 1 -11,-8.48 c -0.34,-1.53 -0.62,-3.74 1.1,-3.78 5.1,-0.12 10.47,-2.22 15.3,1.23 0.23,2.95 -2.06,2.77 -3.89,3.12 -1.83,0.35 -3.91,-0.36 -5.8,0.54 4,4.22 6.92,3.46 10.62,-2.74 0.85,-1.2 0.64,-2.56 0.64,-3.88 q 0,-30.24 0,-60.47 a 9.91,9.91 0 0 0 -1.68,-6.11 c -2.87,-4 -5.13,-4.46 -10,-1.23 2.19,0.64 4.12,0.06 5.92,0.4 1.8,0.34 4.15,0.38 4.11,3.24 -4.92,3 -10.23,1.25 -15.36,1 -1.52,-0.07 -1.3,-2 -1.05,-3.36 a 10.77,10.77 0 0 1 10.19,-8.73 q 34.4,-0.18 68.79,0 a 10,10 0 0 1 9.95,8.85 c 0.63,5.24 0.31,10.6 0.34,15.91 0.04,1.12 -0.95,1.68 -1.73,2.29 z"
       id="path12"
       inkscape:connector-curvature="0"
       style="fill:#2c3e50" />
    <path
       class="cls-4"
       d="m 412.07,277.15 c -8.72,8.64 -18.73,13.86 -31.45,11.69 -2.11,-0.36 -3.05,0.87 -3.94,2.33 -1.55,2.55 -3,5.14 -4.56,7.71 -0.65,1.1 -1.5,1.89 -2.82,1.13 a 1.63,1.63 0 0 1 -0.55,-2.56 c 6.06,-7.27 6.54,-16.66 9.86,-24.94 3,-7.59 9.81,-12 17.33,-15.54 5.9,-2.79 12.54,-2.52 18.18,-5.7 a 21.87,21.87 0 0 0 9.71,-5.69 c 1,-0.93 1.87,-2.09 3.37,-1.33 1.5,0.76 1.15,2.4 0.57,3.48 -4.84,9 -6.11,19.91 -14.94,26.66 -0.6,0.46 -0.52,1.82 -0.76,2.76 z"
       id="path14"
       inkscape:connector-curvature="0"
       style="fill:#2d3f50" />
    <path
       class="cls-5"
       d="m 341,233.18 c -1.26,-3 -3.93,-1.75 -6.08,-1.93 -2,-0.15 -3.94,0 -6.19,0 0.51,-4 3,-5.4 6.11,-5.71 a 6.63,6.63 0 0 1 7.24,4.13 14.38,14.38 0 0 1 1.07,5.83 q 0,31.11 0,62.23 c 0,1.65 0.17,3.34 -0.93,4.78 a 1.55,1.55 0 0 1 -0.13,-2.27 q 0,-31.5 0,-63 c 0.06,-1.42 0.66,-3.09 -1.09,-4.06 z"
       id="path16"
       inkscape:connector-curvature="0"
       style="fill:#aaacae" />
    <path
       class="cls-6"
       d="m 342.1,300.21 c 0,0.75 0.09,1.51 0.13,2.27 -0.13,3.51 -2.46,4.88 -5.47,5.32 A 7.21,7.21 0 0 1 329.68,305.18 3.15,3.15 0 0 1 329,303 c 0.21,-1 1.35,-0.5 2.09,-0.67 3.31,-0.79 7.31,1.9 10,-2 z"
       id="path18"
       inkscape:connector-curvature="0"
       style="fill:#b0b1b2" />
    <path
       class="cls-7"
       d="m 379.54,236.41 c 4.66,0 9.32,0 14,0 1.58,0 3.77,-0.41 3.71,2.08 -0.05,2.13 -2.05,1.77 -3.47,1.77 q -14.47,0 -28.95,0 c -1.45,0 -3.43,0.29 -3.47,-1.79 0,-2.45 2.15,-2.05 3.73,-2.06 4.8,-0.03 9.63,0 14.45,0 z"
       id="path20"
       inkscape:connector-curvature="0"
       style="fill:#334456" />
    <path
       class="cls-8"
       d="m 379.16,249.34 c -5,0 -10,0 -14.93,0 -1.33,0 -2.91,0 -2.91,-1.83 0,-1.83 1.57,-1.9 2.9,-1.91 q 14.92,0 29.86,0 c 1.5,0 3.31,0 3.15,2.18 -0.14,1.82 -1.86,1.55 -3.14,1.56 -4.98,0.02 -9.95,0 -14.93,0 z"
       id="path22"
       inkscape:connector-curvature="0"
       style="fill:#38495a" />
    <path
       class="cls-9"
       d="m 374.44,258.39 c -3.49,0 -7,0 -10.48,0 -1.19,0 -2.54,-0.11 -2.64,-1.61 -0.1,-1.5 1.23,-1.82 2.44,-1.82 q 11,0 21.94,0 c 1.21,0 2.52,0.29 2.38,1.85 -0.14,1.56 -1.5,1.56 -2.67,1.57 -3.66,0.02 -7.32,0.01 -10.97,0.01 z"
       id="path24"
       inkscape:connector-curvature="0"
       style="fill:#2d3f51" />
    <path
       class="cls-10"
       d="m 390,277 c 4.43,-4.52 9.74,-7.87 15.07,-11.19 1.54,-1 4.67,-1.52 3.48,-3.91 -1.26,-2.54 -3.41,0.38 -5.21,0.43 -1.44,0 -3.07,3.22 -4.31,-0.25 0.46,-1.68 1.26,-3.31 3,-3.69 6.26,-1.36 12.47,-2.82 18.65,-5.73 -0.09,3.87 -2.37,5.24 -4.49,6.74 -1.36,1 -2.85,1.76 -1.81,3.95 1.57,3.3 0.22,6.13 -3.19,7 -1.12,0.28 -2.33,0.22 -3.44,0.53 -1.5,0.41 -3.7,-0.46 -4.35,1.59 -0.65,2.05 1.35,2.29 2.6,3 1.25,0.71 0.77,1.6 0,2.38 -2,2 -4.1,3.9 -7.4,2.72 -2.33,-0.83 -4.74,-1.42 -7.11,-2.11 -1.23,0.27 -1.71,-0.22 -1.49,-1.46 z"
       id="path26"
       inkscape:connector-curvature="0"
       style="fill:#f9d016" />
    <path
       class="cls-10"
       d="m 399,262.11 c 1.32,2.06 2.9,-0.3 4.31,0.25 a 195.87,195.87 0 0 0 -23.31,17.91 21.87,21.87 0 0 1 8.55,-14.59 c 1.25,-0.95 3.41,-5.13 4.93,0.22 0.37,1.28 2,0.67 2.86,-0.3 0.94,-1.12 1.8,-2.33 2.66,-3.49 z"
       id="path28"
       inkscape:connector-curvature="0"
       style="fill:#f9d016" />
    <path
       class="cls-10"
       d="m 390,277 1.47,1.43 c -2.35,2.66 0.73,4 1.69,6.32 A 16.37,16.37 0 0 1 382.29,285.09 21.15,21.15 0 0 1 390,277 Z"
       id="path30"
       inkscape:connector-curvature="0"
       style="fill:#f9d016" />
  </g>
</svg>
