<svg xmlns="http://www.w3.org/2000/svg" xmlns:xlink="http://www.w3.org/1999/xlink" width="410.922" height="495.921" viewBox="0 0 410.922 495.921">
  <defs>
    <style>
      .cls-1, .cls-3, .cls-6 {
        fill: none;
        stroke: #ff826e;
      }

      .cls-1, .cls-3 {
        stroke-width: 10px;
      }

      .cls-2, .cls-4 {
        fill: url(#linear-gradient);
      }

      .cls-3, .cls-6 {
        stroke-linecap: round;
      }

      .cls-4 {
        stroke: #95989a;
        stroke-miterlimit: 10;
      }

      .cls-5 {
        fill: #fff;
      }

      .cls-6 {
        stroke-width: 15px;
      }
    </style>
    <linearGradient id="linear-gradient" x1="0.5" x2="1.301" y2="0.279" gradientUnits="objectBoundingBox">
      <stop offset="0" stop-color="#ff826e"/>
      <stop offset="0" stop-color="#ff816e"/>
      <stop offset="1" stop-color="#f64976"/>
    </linearGradient>
  </defs>
  <g id="Group_100" data-name="Group 100" transform="translate(-1346 -3134)">
    <path id="ic_insert_drive_file_24px" class="cls-1" d="M37.3,2A33.252,33.252,0,0,0,4.166,35.3L4,301.665a33.252,33.252,0,0,0,33.13,33.3H237.072a33.394,33.394,0,0,0,33.3-33.3V101.888L170.48,2ZM153.832,118.536V26.972L245.4,118.536Z" transform="translate(1347 3137)"/>
    <path id="Path_102" data-name="Path 102" class="cls-2" d="M13960.7,6157.62V6265.7h107.687Z" transform="translate(-12464 -3005)"/>
    <circle id="Ellipse_6" data-name="Ellipse 6" class="cls-2" cx="28.5" cy="28.5" r="28.5" transform="translate(1391 3207)"/>
    <line id="Line_5" data-name="Line 5" class="cls-3" x2="83" transform="translate(1391.5 3307.5)"/>
    <line id="Line_6" data-name="Line 6" class="cls-3" x2="158" transform="translate(1391.5 3332.5)"/>
    <line id="Line_8" data-name="Line 8" class="cls-3" x2="158" transform="translate(1391.5 3357.5)"/>
    <path id="ic_zoom_in_24px" class="cls-4" d="M264.017,232.695h-16.5l-5.847-5.638a135.934,135.934,0,1,0-14.617,14.617l5.638,5.847v16.5L337.1,368.215,368.215,337.1Zm-125.288,0a93.966,93.966,0,1,1,93.966-93.966A93.84,93.84,0,0,1,138.729,232.695Z" transform="translate(1388 3261)"/>
    <circle id="Ellipse_7" data-name="Ellipse 7" class="cls-5" cx="95" cy="95" r="95" transform="translate(1433 3305)"/>
    <line id="Line_9" data-name="Line 9" class="cls-6" y2="69" transform="translate(1470.5 3374.5)"/>
    <line id="Line_10" data-name="Line 10" class="cls-6" y2="50" transform="translate(1507.588 3393.5)"/>
    <line id="Line_11" data-name="Line 11" class="cls-6" y2="86" transform="translate(1544.676 3357.5)"/>
    <line id="Line_12" data-name="Line 12" class="cls-6" y2="61" transform="translate(1581.765 3382.5)"/>
  </g>
</svg>
