<svg xmlns="http://www.w3.org/2000/svg" width="100%" height="100%" viewBox="0 0 410.215 495.215">
  <g id="Group_100" data-name="Group 100" transform="translate(-1346 -3134)">
    <path id="ic_insert_drive_file_24px" d="M37.3,2A33.252,33.252,0,0,0,4.166,35.3L4,301.665a33.252,33.252,0,0,0,33.13,33.3H237.072a33.394,33.394,0,0,0,33.3-33.3V101.888L170.48,2ZM153.832,118.536V26.972L245.4,118.536Z" transform="translate(1347 3137)" fill="none" stroke="#2b44ff" stroke-width="10"/>
    <path id="Path_102" data-name="Path 102" d="M13966.969,6172.068v89.65h87.418Z" transform="translate(-12464 -3005)" fill="#2b44ff"/>
    <circle id="Ellipse_6" data-name="Ellipse 6" cx="28.5" cy="28.5" r="28.5" transform="translate(1391 3207)" fill="#2b44ff"/>
    <line id="Line_5" data-name="Line 5" x2="83" transform="translate(1391.5 3307.5)" fill="none" stroke="#2b44ff" stroke-linecap="round" stroke-width="10"/>
    <line id="Line_6" data-name="Line 6" x2="158" transform="translate(1391.5 3332.5)" fill="none" stroke="#2b44ff" stroke-linecap="round" stroke-width="10"/>
    <line id="Line_8" data-name="Line 8" x2="158" transform="translate(1391.5 3357.5)" fill="none" stroke="#2b44ff" stroke-linecap="round" stroke-width="10"/>
    <path id="ic_zoom_in_24px" d="M264.017,232.695h-16.5l-5.847-5.638a135.934,135.934,0,1,0-14.617,14.617l5.638,5.847v16.5L337.1,368.215,368.215,337.1Zm-125.288,0a93.966,93.966,0,1,1,93.966-93.966A93.84,93.84,0,0,1,138.729,232.695Z" transform="translate(1388 3261)" fill="#2b44ff"/>
    <circle id="Ellipse_7" data-name="Ellipse 7" cx="95" cy="95" r="95" transform="translate(1433 3305)" fill="#e6e8ff"/>
    <line id="Line_9" data-name="Line 9" y2="69" transform="translate(1470.5 3374.5)" fill="none" stroke="#2b44ff" stroke-linecap="round" stroke-width="15"/>
    <line id="Line_10" data-name="Line 10" y2="50" transform="translate(1507.588 3393.5)" fill="none" stroke="#2b44ff" stroke-linecap="round" stroke-width="15"/>
    <line id="Line_11" data-name="Line 11" y2="86" transform="translate(1544.676 3357.5)" fill="none" stroke="#2b44ff" stroke-linecap="round" stroke-width="15"/>
    <line id="Line_12" data-name="Line 12" y2="61" transform="translate(1581.765 3382.5)" fill="none" stroke="#2b44ff" stroke-linecap="round" stroke-width="15"/>
  </g>
</svg>
