<svg xmlns="http://www.w3.org/2000/svg" width="100%" height="100%" viewBox="0 0 810.039 870.508">
  <defs>
    <style>
      .cls-1 {
        fill: #f64976;
        opacity: 0.1;
      }
    </style>
  </defs>
  <path id="ic_monetization_on_24px" class="cls-1" d="M407.02,2C183.449,2,2,196.994,2,437.254S183.449,872.508,407.02,872.508s405.02-194.994,405.02-435.254S630.591,2,407.02,2Zm57.108,700.324v83.134H355.987v-84C286.729,685.784,228,637.906,223.546,553.467H302.93c4.05,45.7,33.212,81.393,107.33,81.393,79.384,0,97.2-42.655,97.2-69.205,0-36.126-17.821-70.076-108.14-93.145-100.445-26.115-169.3-70.511-169.3-159.738,0-74.864,56.3-123.612,125.961-139.717v-84h108.14v84.874c75.334,19.586,113,80.957,115.431,147.551H500.174c-2.025-48.313-25.921-81.393-89.914-81.393-60.753,0-97.2,29.6-97.2,71.382,0,36.561,26.326,60.5,108.14,83.134s169.3,60.5,169.3,170.184c-.405,79.652-55.893,123.177-126.366,137.54Z" transform="translate(-2 -2)"/>
</svg>
