<?xml version="1.0" standalone="no"?>
<!DOCTYPE svg PUBLIC "-//W3C//DTD SVG 20010904//EN"
 "http://www.w3.org/TR/2001/REC-SVG-20010904/DTD/svg10.dtd">
<svg version="1.0" xmlns="http://www.w3.org/2000/svg"
 width="100%" height="100%" viewBox="0 0 225.000000 225.000000"
 preserveAspectRatio="xMidYMid meet">
<metadata>
Created by potrace 1.15, written by Peter Selinger 2001-2017
</metadata>
<g transform="translate(0.000000,225.000000) scale(0.100000,-0.100000)"
fill="#000000" stroke="none">
<path d="M17 2032 c-16 -17 -17 -94 -17 -909 0 -849 1 -891 18 -906 17 -16
108 -17 1109 -17 1043 0 1091 1 1106 18 16 17 17 94 17 909 0 849 -1 891 -18
906 -17 16 -108 17 -1109 17 -1043 0 -1091 -1 -1106 -18z m2123 -1067 l0 -665
-1015 0 -1015 0 0 665 0 665 1015 0 1015 0 0 -665z"/>
<path d="M693 1140 c-31 -13 -40 -55 -18 -80 17 -19 34 -20 435 -20 429 0 444
1 451 40 5 27 -11 58 -34 64 -35 9 -810 6 -834 -4z"/>
<path d="M476 874 c-21 -21 -20 -47 2 -67 16 -14 43 -17 170 -17 151 0 152 0
168 25 15 23 15 27 0 50 -16 25 -17 25 -171 25 -126 0 -156 -3 -169 -16z"/>
<path d="M956 874 c-20 -19 -20 -34 0 -62 15 -21 21 -22 169 -22 148 0 154 1
169 22 20 28 20 43 0 62 -23 23 -315 23 -338 0z"/>
<path d="M1434 865 c-15 -23 -15 -27 0 -50 16 -25 17 -25 170 -25 135 0 155 2
169 18 21 23 22 46 1 66 -13 13 -43 16 -169 16 -154 0 -155 0 -171 -25z"/>
</g>
</svg>
