<?xml version="1.0" encoding="UTF-8" standalone="no"?>
<svg
   xmlns:dc="http://purl.org/dc/elements/1.1/"
   xmlns:cc="http://creativecommons.org/ns#"
   xmlns:rdf="http://www.w3.org/1999/02/22-rdf-syntax-ns#"
   xmlns:svg="http://www.w3.org/2000/svg"
   xmlns="http://www.w3.org/2000/svg"
   xmlns:sodipodi="http://sodipodi.sourceforge.net/DTD/sodipodi-0.dtd"
   xmlns:inkscape="http://www.inkscape.org/namespaces/inkscape"
   version="1.0"
   width="100%"
   height="100%"
   viewBox="0 0 634.0954 311.79559"
   preserveAspectRatio="xMidYMid meet"
   id="svg20"
   sodipodi:docname="worldmap.svg"
   inkscape:version="0.92.4 (5da689c313, 2019-01-14)">
  <defs
     id="defs24" />
  <sodipodi:namedview
     pagecolor="#ffffff"
     bordercolor="#666666"
     borderopacity="1"
     objecttolerance="10"
     gridtolerance="10"
     guidetolerance="10"
     inkscape:pageopacity="0"
     inkscape:pageshadow="2"
     inkscape:window-width="1920"
     inkscape:window-height="1027"
     id="namedview22"
     showgrid="false"
     inkscape:zoom="0.35677467"
     inkscape:cx="450.32682"
     inkscape:cy="208"
     inkscape:window-x="0"
     inkscape:window-y="27"
     inkscape:window-maximized="1"
     inkscape:current-layer="svg20" />
  <metadata
     id="metadata2">
Created by potrace 1.15, written by Peter Selinger 2001-2017
<rdf:RDF>
  <cc:Work
     rdf:about="">
    <dc:format>image/svg+xml</dc:format>
    <dc:type
       rdf:resource="http://purl.org/dc/dcmitype/StillImage" />
  </cc:Work>
</rdf:RDF>
</metadata>
  <g
     transform="matrix(0.1,0,0,-0.1,-1.7548887,311.79559)"
     id="g18"
     style="fill:#000000;stroke:none">
    <path
       d="m 2345,3105 c -93,-7 -188,-15 -210,-19 -25,-4 -33,-3 -21,2 11,5 15,11 10,14 -16,10 -195,7 -282,-5 -80,-10 -83,-11 -62,-27 11,-9 18,-19 14,-23 -11,-11 -26,-8 -19,3 3,5 -5,15 -19,22 -20,8 -35,8 -67,-1 -57,-17 -45,-37 22,-34 l 54,2 -50,-15 c -27,-9 -74,-15 -103,-15 -33,1 -51,-3 -47,-9 3,-6 13,-10 21,-10 8,0 14,-4 14,-10 0,-5 18,-10 39,-10 57,0 60,-17 4,-18 -36,-1 -53,-7 -72,-27 -24,-24 -25,-27 -8,-36 15,-9 16,-13 6,-25 -7,-8 -20,-19 -30,-24 -14,-8 -16,-6 -11,12 4,17 2,20 -11,15 -14,-5 -17,0 -17,23 0,26 5,31 40,40 37,10 64,30 41,30 -6,0 -11,7 -11,15 0,25 -23,17 -56,-18 -40,-44 -61,-57 -40,-24 16,24 16,25 -9,29 -15,3 -32,0 -40,-8 -7,-8 -18,-14 -24,-14 -6,0 -11,-4 -11,-10 0,-11 35,-32 42,-24 3,2 3,-7 1,-20 -6,-27 -29,-53 -40,-42 -3,3 -1,6 5,6 7,0 12,7 12,16 0,13 -7,15 -29,11 -23,-5 -31,-2 -36,12 -3,10 -3,26 1,35 7,18 -18,32 -38,20 -19,-12 -79,-4 -95,12 -21,20 -100,17 -151,-6 -55,-25 -51,-46 7,-42 44,4 47,1 29,-27 -10,-16 -16,-17 -37,-9 -22,9 -69,10 -281,6 -19,0 -73,6 -120,13 -106,16 -217,13 -273,-6 -23,-8 -47,-15 -54,-15 -6,0 -24,-5 -39,-10 -21,-8 -24,-14 -16,-22 20,-20 13,-28 -25,-28 -52,0 -83,-10 -83,-26 0,-7 14,-14 33,-16 l 32,-4 -30,-8 c -62,-16 -134,-48 -139,-62 -9,-23 16,-55 36,-48 10,3 18,2 18,-3 0,-4 -26,-19 -58,-33 -86,-37 -37,-37 60,0 46,18 95,38 110,46 15,8 29,10 33,5 7,-12 74,6 92,25 17,16 29,18 37,5 4,-5 24,-12 45,-16 61,-10 84,-42 82,-112 -3,-88 -4,-93 -18,-93 -17,0 -16,-11 3,-38 15,-22 14,-25 -10,-60 -97,-136 -100,-144 -98,-207 2,-50 7,-63 28,-80 18,-14 27,-33 31,-65 3,-25 10,-51 16,-58 8,-10 7,-16 -4,-23 -12,-8 -10,-13 9,-28 12,-11 22,-24 22,-30 0,-14 40,-54 47,-48 3,3 -9,43 -26,89 -18,48 -27,86 -22,91 13,13 31,-1 31,-22 0,-23 43,-115 75,-159 17,-24 23,-42 19,-61 -5,-23 0,-31 33,-54 61,-42 131,-69 161,-62 22,4 33,0 52,-20 13,-14 31,-25 41,-25 10,0 21,-4 24,-10 3,-5 14,-10 24,-10 20,0 63,-42 59,-57 -4,-12 47,-55 84,-70 24,-11 28,-10 33,7 9,28 22,25 41,-11 18,-36 12,-90 -11,-109 -8,-7 -15,-19 -15,-26 0,-8 -6,-14 -13,-14 -19,0 -37,-63 -25,-85 7,-11 6,-21 -1,-28 -18,-18 -13,-47 14,-79 13,-16 41,-59 61,-96 48,-87 59,-99 117,-128 26,-14 52,-35 57,-47 10,-25 34,-317 31,-387 -2,-57 17,-142 35,-156 8,-7 24,-44 35,-84 35,-129 80,-195 123,-184 18,4 27,0 36,-15 8,-17 20,-21 58,-21 l 47,1 -30,16 c -40,21 -85,63 -85,81 0,8 8,28 18,44 11,21 13,32 6,35 -6,2 -20,10 -30,18 -19,15 -19,15 0,30 10,8 16,21 13,29 -4,9 -2,18 3,21 15,9 12,25 -5,25 -8,0 -15,5 -15,10 0,6 6,10 13,9 32,-4 39,1 33,26 -6,23 -4,25 29,25 43,0 65,33 46,68 -15,28 -14,31 9,25 27,-7 57,21 65,59 4,16 13,32 21,35 8,3 14,11 14,18 0,7 7,18 16,25 11,10 14,23 9,50 -7,44 2,54 76,79 48,16 57,24 78,67 19,36 25,64 24,109 0,53 4,66 34,108 48,68 56,95 42,129 -6,15 -18,28 -26,28 -8,0 -28,11 -43,24 -18,14 -48,26 -80,30 -29,4 -59,14 -67,21 -8,8 -26,18 -41,22 -45,11 -68,31 -80,71 -15,51 -49,80 -103,90 -50,10 -123,71 -113,95 4,12 -8,14 -68,14 -56,-1 -80,3 -101,17 -21,14 -31,16 -40,7 -6,-6 -16,-11 -21,-11 -6,0 -4,4 4,10 22,14 3,25 -23,12 -12,-6 -34,-16 -50,-22 -15,-5 -27,-16 -27,-24 0,-24 -28,-40 -45,-26 -9,8 -28,10 -54,5 -33,-5 -41,-3 -54,15 -13,18 -13,28 -2,71 12,46 12,50 -7,60 -11,6 -36,9 -54,7 -40,-5 -41,-1 -9,72 26,61 21,72 -28,63 -20,-4 -32,-14 -39,-34 -10,-30 -38,-43 -79,-37 -16,2 -30,16 -42,41 -18,36 -18,40 -2,95 9,31 18,62 20,68 6,23 91,53 130,47 23,-4 40,-2 44,5 9,14 57,17 96,5 24,-8 30,-15 32,-42 2,-17 8,-41 14,-52 10,-20 12,-20 30,-4 15,15 17,27 12,75 -5,56 -5,58 28,83 19,14 50,34 69,44 19,11 39,32 45,47 14,42 76,102 118,115 20,7 37,16 37,19 1,18 21,33 75,58 55,24 58,24 41,5 -23,-25 -13,-41 11,-19 10,9 35,19 56,22 34,6 44,26 13,26 -23,0 -41,29 -28,42 19,19 14,38 -10,39 -13,1 -3,5 22,9 25,5 53,6 62,4 9,-3 31,2 48,11 44,23 46,14 5,-28 -37,-38 -34,-48 12,-47 15,1 40,-2 54,-5 25,-7 27,-5 27,29 0,29 -4,36 -19,36 -23,0 -23,4 -3,35 21,32 12,68 -19,82 -18,9 -26,22 -30,53 -7,55 -21,69 -45,47 -10,-9 -28,-17 -40,-17 -18,0 -21,4 -17,23 7,27 -20,50 -71,60 -32,6 -64,-14 -64,-41 0,-6 -8,-17 -19,-24 -10,-7 -18,-24 -17,-37 1,-19 -8,-30 -38,-47 -22,-12 -45,-35 -52,-52 -15,-36 -32,-48 -47,-33 -9,9 -8,19 5,41 l 17,30 -37,10 c -20,6 -46,17 -56,25 -11,8 -28,15 -39,15 -13,0 -17,5 -13,15 3,8 0,15 -7,15 -15,1 62,70 77,70 6,0 39,13 74,30 60,28 63,29 56,8 -5,-18 -4,-20 17,-13 13,4 36,7 52,7 30,-1 35,9 12,28 -21,17 -19,29 3,23 21,-5 82,41 82,62 0,20 59,14 90,-8 l 25,-18 -30,-25 c -21,-17 -38,-23 -57,-20 -15,3 -31,0 -37,-8 -15,-17 -4,-26 33,-26 16,0 39,-9 50,-19 12,-11 34,-23 50,-27 25,-6 28,-5 23,11 -5,12 -3,16 7,12 8,-3 22,0 31,7 15,11 16,16 5,35 -14,27 -8,38 10,16 15,-18 41,-20 58,-3 19,19 14,37 -11,49 -17,8 -23,17 -20,33 4,19 -3,25 -41,40 -25,10 -44,23 -43,29 1,6 -8,13 -20,15 -20,3 -21,4 -5,20 18,17 140,62 224,81 60,14 75,14 62,1 -6,-6 -33,-13 -61,-17 -42,-4 -50,-9 -45,-22 9,-25 23,-31 77,-31 66,0 80,-10 72,-49 -6,-26 -3,-31 13,-31 10,0 22,-5 26,-12 5,-8 2,-9 -10,-5 -13,5 -17,2 -14,-11 2,-11 -6,-21 -24,-29 -24,-10 -28,-18 -28,-53 0,-49 25,-114 40,-105 6,4 22,-1 36,-10 24,-16 25,-15 82,45 50,53 62,61 100,65 23,2 55,13 71,24 16,12 40,21 53,21 29,0 138,36 152,50 6,6 3,17 -9,30 -18,20 -18,20 4,20 45,0 84,41 85,90 1,9 25,22 66,34 62,19 64,20 35,28 -16,4 -43,8 -60,7 -16,-1 -46,4 -65,10 -40,13 -65,12 -295,-4 z"
       id="path4"
       inkscape:connector-curvature="0" />
    <path
       d="m 4360,3015 c -14,-8 -39,-15 -56,-15 -33,0 -96,-19 -104,-31 -3,-4 -19,-9 -35,-11 -18,-2 -29,-8 -27,-16 2,-10 -9,-13 -38,-11 -24,2 -44,-2 -49,-9 -5,-8 -12,-6 -24,8 -23,28 -36,25 -66,-12 -11,-15 -11,-21 -1,-33 14,-17 7,-19 -36,-6 -18,5 -37,5 -47,-1 -9,-5 -43,-11 -75,-13 -32,-3 -75,-11 -95,-20 -44,-18 -48,-18 -45,-2 2,7 -9,13 -25,15 -25,3 -27,1 -22,-20 5,-19 0,-26 -27,-37 -18,-8 -40,-15 -48,-15 -8,-1 -20,-4 -26,-8 -7,-5 -14,-2 -17,7 -5,10 4,15 36,17 89,6 41,54 -73,73 -25,4 -51,12 -58,18 -8,6 -43,8 -93,4 -88,-7 -111,-18 -186,-94 -23,-23 -63,-51 -88,-62 -48,-21 -54,-36 -35,-85 11,-30 30,-33 64,-11 22,15 24,14 38,-7 8,-13 18,-33 22,-45 4,-13 13,-23 20,-23 18,0 56,38 56,56 0,8 7,17 15,20 19,8 19,23 -1,45 -14,16 -14,19 5,36 12,10 32,28 45,41 13,12 32,22 42,22 15,-1 13,-6 -14,-29 -29,-25 -32,-31 -22,-55 6,-16 19,-30 30,-33 11,-3 20,-9 20,-13 0,-5 3,-16 7,-25 5,-14 2,-16 -15,-11 -18,6 -24,1 -36,-28 -9,-22 -21,-35 -33,-34 -10,0 -37,-3 -59,-7 -35,-6 -44,-4 -63,16 l -21,23 v -23 c 0,-13 -4,-19 -11,-16 -6,4 -7,19 -4,35 8,35 -7,46 -29,21 -11,-12 -15,-27 -11,-44 6,-21 2,-26 -21,-31 -15,-4 -41,-18 -57,-32 -33,-28 -47,-30 -47,-8 0,9 -14,33 -30,54 -18,23 -28,44 -24,54 7,17 -17,46 -38,46 -42,0 -51,-61 -13,-86 28,-18 33,-34 10,-34 -8,0 -16,-7 -16,-15 -2,-24 -4,-29 -13,-43 -12,-20 -6,-21 44,-12 25,5 54,9 65,9 20,0 20,0 1,-14 -11,-8 -28,-13 -38,-9 -10,3 -18,1 -18,-5 0,-6 -13,-11 -30,-11 -35,0 -40,-17 -7,-29 35,-14 50,-37 43,-68 -6,-27 -8,-28 -79,-28 h -72 l -6,-45 c -3,-25 -7,-49 -9,-55 -9,-33 1,-54 27,-57 42,-5 38,-29 -12,-80 -25,-26 -45,-55 -45,-66 0,-18 -29,-52 -44,-52 -14,0 -66,-58 -66,-74 0,-8 -5,-18 -10,-21 -6,-3 -17,-20 -25,-36 -13,-24 -14,-37 -5,-67 9,-29 9,-46 -3,-79 -19,-57 -11,-90 34,-140 22,-24 39,-48 39,-55 1,-7 26,-32 56,-55 50,-37 59,-40 87,-32 18,5 50,9 72,8 22,-1 57,6 77,15 54,23 85,20 104,-10 13,-19 24,-25 44,-22 42,6 54,-15 43,-73 -9,-45 -8,-53 13,-82 28,-39 75,-136 72,-151 0,-6 2,-24 7,-39 5,-19 3,-33 -8,-45 -8,-9 -20,-40 -27,-68 -12,-49 -12,-53 18,-110 16,-32 33,-83 37,-113 3,-30 15,-67 25,-81 25,-35 41,-77 44,-112 1,-15 5,-31 9,-34 14,-14 175,13 201,33 43,35 106,121 106,147 0,17 9,29 28,38 25,13 27,18 26,68 -1,53 1,56 38,85 89,67 90,69 85,138 -3,34 -10,87 -16,117 -14,74 -1,101 104,204 88,87 145,180 145,237 0,26 -3,30 -17,24 -10,-3 -43,-12 -75,-20 -56,-13 -77,-8 -78,20 -1,15 -52,71 -72,78 -9,3 -19,19 -23,35 -3,17 -12,33 -20,35 -7,3 -16,24 -20,46 -4,22 -13,45 -20,51 -8,6 -30,43 -50,82 -20,39 -30,66 -22,60 8,-7 16,-9 20,-6 3,3 12,-7 20,-23 8,-15 29,-45 46,-67 17,-21 31,-47 31,-57 0,-11 8,-27 18,-37 32,-33 72,-91 72,-105 0,-8 5,-29 11,-46 10,-29 15,-32 40,-27 16,3 48,15 71,26 23,11 47,20 54,20 7,0 19,8 26,19 7,10 24,21 37,26 32,10 58,33 92,84 l 30,44 -22,23 c -12,13 -28,24 -34,24 -7,0 -17,12 -24,26 l -12,26 -24,-26 c -30,-33 -62,-34 -67,-3 -2,12 -9,21 -16,19 -8,-1 -11,2 -7,7 3,6 -3,15 -14,21 -30,15 -46,49 -31,64 9,8 18,3 38,-20 34,-40 83,-65 111,-57 15,4 26,-1 36,-13 11,-16 28,-19 104,-20 l 90,-1 50,-53 c 36,-38 55,-51 69,-48 16,5 21,-3 31,-48 13,-55 93,-238 109,-248 5,-3 21,7 36,23 21,22 27,38 29,87 3,58 4,60 73,129 44,45 82,74 107,81 20,7 37,8 37,4 0,-5 16,-27 35,-50 22,-27 35,-52 35,-71 0,-22 5,-29 19,-29 11,0 23,5 26,10 11,18 20,10 40,-38 12,-30 18,-66 17,-99 -2,-37 2,-54 12,-60 16,-9 71,-123 59,-123 -3,0 -25,18 -49,40 -39,36 -84,53 -84,32 0,-4 16,-25 35,-46 19,-21 48,-62 65,-91 45,-78 101,-138 123,-130 27,11 22,68 -8,101 -14,15 -25,33 -25,40 0,7 -10,20 -22,28 -12,9 -18,16 -12,16 5,0 15,-5 22,-12 19,-19 23,-4 13,43 -6,27 -21,54 -39,70 -42,37 -63,86 -56,125 5,25 10,31 22,27 23,-8 82,-72 82,-89 0,-21 7,-18 56,23 61,52 58,98 -10,167 -20,19 -36,44 -36,54 0,26 33,54 54,46 19,-7 22,-30 4,-36 -18,-6 0,-40 19,-36 14,3 17,12 15,41 -3,33 0,37 20,37 31,1 99,32 120,57 28,31 50,104 43,145 -4,23 -21,52 -46,79 -21,23 -39,45 -39,48 0,4 12,14 27,23 l 28,16 -28,7 c -15,4 -34,5 -42,1 -8,-3 -15,-1 -15,4 0,5 -9,11 -19,15 -20,6 -20,6 0,26 23,23 39,25 39,4 0,-12 8,-14 40,-9 36,6 40,4 40,-14 0,-13 7,-22 22,-24 14,-2 25,-14 32,-35 15,-42 19,-45 50,-33 25,9 26,11 12,37 -8,16 -26,39 -40,52 -16,15 -23,28 -17,35 5,6 11,22 13,36 2,17 10,25 23,26 11,1 25,2 32,3 6,0 19,33 28,72 15,70 15,72 -5,94 -11,12 -20,25 -20,29 0,16 33,-19 66,-71 19,-29 38,-53 42,-53 20,0 21,15 0,37 -12,12 -18,26 -15,29 4,4 -18,33 -49,64 -52,53 -59,57 -102,58 -63,0 -64,1 -84,16 -17,12 -17,15 -1,56 l 17,43 103,-6 102,-6 -6,30 c -5,25 -2,29 15,29 12,0 24,-4 27,-10 3,-5 15,-10 26,-10 10,0 19,5 19,10 0,6 5,10 11,10 12,0 3,-58 -13,-77 -14,-18 2,-41 76,-109 68,-63 78,-63 72,-4 -1,14 2,30 6,36 5,7 -8,29 -37,58 -25,26 -45,48 -45,50 0,2 24,7 52,11 34,5 58,14 66,26 8,11 25,19 43,19 38,0 37,18 -1,31 -16,6 -30,15 -30,20 0,18 26,20 69,4 56,-19 61,-19 61,5 0,23 -18,34 -85,49 -27,6 -73,17 -101,25 -68,19 -232,38 -246,30 -18,-11 -127,-4 -187,12 -30,7 -70,13 -90,13 -20,-1 -54,3 -76,9 -64,16 -182,25 -186,13 -2,-6 -31,-13 -64,-15 -50,-4 -64,-1 -81,15 -19,18 -38,20 -181,22 -139,2 -158,4 -141,16 28,19 11,31 -58,41 -32,4 -75,10 -94,13 -21,4 -45,0 -60,-8 z m -452,-652 c 2,-7 -4,-13 -12,-13 -31,0 -29,-29 4,-60 18,-16 36,-30 41,-30 5,0 9,-4 9,-10 0,-5 -4,-10 -10,-10 -14,0 -12,-16 3,-32 43,-44 8,-81 -46,-49 -23,13 -27,21 -23,43 4,20 -1,35 -19,54 -14,15 -31,40 -39,55 -14,27 -13,30 12,49 28,22 73,23 80,3 z m -385,-18 c 19,-21 28,-24 48,-17 18,7 34,5 60,-9 99,-50 77,-92 -28,-55 -33,12 -45,12 -79,0 -52,-18 -71,-17 -82,3 -9,15 -1,35 35,96 8,13 22,7 46,-18 z m -352,-11 c 8,-9 31,-27 51,-40 22,-14 40,-35 44,-51 12,-46 52,-94 99,-119 48,-26 64,-20 17,7 -25,14 -28,22 -27,60 1,37 4,44 21,44 13,0 23,-11 30,-35 13,-39 59,-73 87,-64 9,3 26,2 38,-1 16,-5 18,-9 8,-21 -6,-8 -9,-18 -5,-21 11,-11 41,13 40,31 -1,9 5,16 14,16 12,0 14,-9 9,-50 -3,-28 -9,-55 -12,-60 -10,-15 -179,-4 -216,14 -53,26 -89,16 -89,-26 0,-19 -15,-24 -25,-8 -3,6 -14,10 -24,10 -10,0 -26,9 -36,20 -10,11 -29,20 -42,20 -48,0 -62,16 -56,61 l 6,42 -104,-8 c -76,-5 -113,-12 -139,-28 -25,-14 -44,-18 -63,-13 -34,8 -26,26 10,26 31,0 73,36 73,62 0,11 13,26 30,36 17,9 33,28 37,40 4,19 11,23 32,19 14,-3 39,2 55,10 29,15 31,14 51,-11 11,-14 42,-39 69,-56 39,-25 46,-33 36,-45 -6,-8 -26,-15 -43,-17 l -32,-3 30,-16 c 29,-16 30,-16 52,8 13,13 23,31 23,39 0,7 7,14 15,14 26,0 16,18 -19,35 -42,20 -90,70 -82,84 10,15 21,14 37,-5 z"
       id="path6"
       inkscape:connector-curvature="0" />
    <path
       d="m 5762,2353 c -46,-39 -41,-39 -116,-8 -16,7 -17,6 -6,-15 10,-18 9,-24 0,-30 -10,-6 -8,-15 9,-38 11,-17 24,-44 27,-62 6,-26 3,-32 -15,-37 -11,-3 -21,-11 -21,-19 0,-7 -15,-16 -33,-19 -23,-5 -39,-16 -51,-36 -16,-27 -16,-30 0,-54 20,-31 32,-32 43,-1 9,21 30,37 56,40 25,4 85,41 85,53 0,41 -25,106 -46,120 -26,17 -33,36 -10,27 19,-7 58,14 53,29 -2,6 14,24 35,39 21,16 38,33 38,38 0,14 1,14 -48,-27 z"
       id="path8"
       inkscape:connector-curvature="0" />
    <path
       d="m 5405,1488 c -28,-53 -95,-128 -114,-128 -6,0 -14,-6 -18,-14 -4,-8 -17,-15 -28,-17 -28,-6 -30,-40 -5,-88 19,-37 24,-41 59,-41 22,0 41,-5 43,-11 4,-12 38,-1 38,13 0,17 40,96 50,100 8,2 6,14 -4,33 -15,28 -14,31 4,50 20,19 20,19 -7,41 l -27,21 28,47 c 15,25 23,46 18,46 -5,0 -21,-24 -37,-52 z"
       id="path10"
       inkscape:connector-curvature="0" />
    <path
       d="m 5687,1259 c -3,-12 0,-19 6,-18 7,1 20,-1 30,-6 14,-6 15,-10 6,-16 -10,-6 -10,-11 0,-23 7,-9 17,-14 21,-11 5,3 29,-4 55,-15 46,-20 47,-21 40,-56 -6,-35 -5,-36 18,-30 16,4 29,1 37,-9 18,-21 40,-19 68,8 l 24,22 27,-31 c 25,-28 101,-57 101,-38 0,3 -17,21 -37,39 -32,28 -35,35 -24,49 8,10 22,13 40,10 19,-4 32,0 45,15 11,12 23,21 27,21 12,0 69,-58 69,-70 0,-10 20,-14 53,-12 11,1 17,-5 17,-18 0,-11 6,-20 14,-20 8,0 16,-6 19,-12 2,-7 7,-10 11,-7 23,21 -48,85 -80,72 -8,-3 -14,1 -14,8 -1,8 -24,32 -53,55 -58,45 -90,66 -70,44 18,-19 -2,-50 -32,-50 -13,0 -27,-4 -30,-10 -10,-16 -22,-12 -58,23 -52,49 -221,100 -214,65 5,-24 -23,-17 -29,6 -3,14 -9,26 -13,27 -49,8 -70,5 -74,-12 z"
       id="path12"
       inkscape:connector-curvature="0" />
    <path
       d="m 5916,1006 c -9,-21 -20,-55 -26,-76 -6,-22 -15,-42 -21,-46 -6,-3 -28,6 -50,21 -40,28 -50,45 -26,45 7,0 13,11 12,27 0,19 -6,27 -20,28 -11,1 -31,5 -44,9 -16,6 -26,4 -32,-5 -8,-12 -10,-12 -18,0 -6,10 -14,3 -32,-28 -23,-42 -33,-49 -44,-31 -19,31 -102,-24 -157,-103 -10,-15 -30,-26 -53,-30 -19,-3 -56,-16 -80,-28 -37,-19 -47,-30 -57,-63 -6,-23 -15,-45 -19,-50 -4,-4 -3,-22 2,-39 14,-49 11,-105 -7,-132 -29,-44 16,-73 60,-40 11,8 37,15 58,15 21,0 49,6 61,14 12,8 52,22 89,30 80,19 111,10 128,-37 10,-30 10,-30 31,-11 l 22,19 -16,-31 c -16,-31 -16,-31 9,-26 22,4 24,2 19,-20 -5,-21 -2,-27 22,-36 35,-14 76,-13 128,1 47,14 183,143 213,204 22,44 37,113 24,113 -4,0 -22,29 -40,64 -17,35 -39,66 -47,70 -10,4 -15,19 -15,49 0,31 -6,49 -20,62 -11,10 -20,30 -20,44 0,14 -4,32 -9,40 -7,11 -13,6 -25,-23 z"
       id="path14"
       inkscape:connector-curvature="0" />
    <path
       d="m 3895,960 c -15,-21 -40,-43 -56,-49 -28,-10 -31,-17 -43,-86 -3,-16 -8,-42 -12,-57 -14,-57 14,-96 58,-82 34,10 114,225 103,274 -10,44 -20,44 -50,0 z"
       id="path16"
       inkscape:connector-curvature="0" />
  </g>
</svg>
